<svg width="17" height="18" viewBox="0 0 17 18" fill="none" xmlns="http://www.w3.org/2000/svg">
<path d="M8.0701 3.17862L8.60762 3.73121L8.57393 3.76585L8.53628 3.7959L8.0701 3.17862ZM13.5922 4.17819L12.8702 4.42297L12.8625 4.39846L12.8561 4.37347L13.5922 4.17819ZM15.1503 9.03523L14.434 9.29751L14.4283 9.28001L15.1503 9.03523ZM10.6753 11.5597L9.92421 11.6807L9.9224 11.6672L10.6753 11.5597ZM10.9994 13.6871L10.2559 13.8496L10.2516 13.829L10.2484 13.8081L10.9994 13.6871ZM10.1518 15.148L9.88118 14.4178L9.90073 14.4101L9.92067 14.4036L10.1518 15.148ZM8.73076 14.6866L9.36181 14.2507L9.36951 14.263L8.73076 14.6866ZM5.59709 4.16323L7.60394 2.56134L8.53628 3.7959L6.52943 5.39777L5.59709 4.16323ZM7.53261 2.62602C7.80012 2.35101 8.16087 2.20581 8.43497 2.12673C8.72796 2.04217 9.04011 2 9.30415 2V3.56297C9.18178 3.56297 9.00779 3.58479 8.84581 3.63154C8.76685 3.65433 8.7031 3.67952 8.65674 3.70315C8.60766 3.72818 8.59764 3.74146 8.60762 3.73121L7.53261 2.62602ZM9.30415 2H11.7723V3.56297H9.30415V2ZM11.7723 2C12.3422 2 12.9011 2.21771 13.345 2.55035C13.7894 2.88334 14.1755 3.3751 14.3282 3.98291L12.8561 4.37347C12.8092 4.18674 12.672 3.98016 12.4495 3.81342C12.2265 3.64634 11.9751 3.56297 11.7723 3.56297V2ZM14.314 3.93343L15.8722 8.79045L14.4283 9.28001L12.8702 4.42297L14.314 3.93343ZM15.8664 8.77301C16.1031 9.45656 16.0259 10.1674 15.6301 10.7163C15.2385 11.2595 14.6061 11.5467 13.9162 11.5467V9.9837C14.1986 9.9837 14.3453 9.87362 14.4087 9.78568C14.468 9.70345 14.5214 9.54942 14.434 9.29751L15.8664 8.77301ZM13.9162 11.5467H11.3235V9.9837H13.9162V11.5467ZM11.3235 11.5467C11.3446 11.5467 11.3752 11.5366 11.4 11.5078C11.4124 11.4934 11.4207 11.4773 11.4249 11.4626C11.4292 11.4475 11.4269 11.4424 11.4282 11.4522L9.9224 11.6672C9.79473 10.7222 10.4894 9.9837 11.3235 9.9837V11.5467ZM11.4263 11.4388L11.7504 13.5661L10.2484 13.8081L9.92421 11.6807L11.4263 11.4388ZM11.7429 13.5244C11.9521 14.5355 11.3256 15.5831 10.3829 15.8924L9.92067 14.4036C10.1496 14.3284 10.296 14.0433 10.2559 13.8496L11.7429 13.5244ZM10.4224 15.8782C9.96099 16.0591 9.48111 16.0198 9.09158 15.8823C8.70855 15.7471 8.32834 15.4868 8.09201 15.1103L9.36951 14.263C9.38249 14.2837 9.45101 14.3567 9.58528 14.404C9.71305 14.4492 9.81904 14.442 9.88118 14.4178L10.4224 15.8782ZM8.09981 15.1225L5.44478 11.0601L6.70668 10.1884L9.36181 14.2507L8.09981 15.1225ZM3.52029 4.78065V11.3036H2V4.78065H3.52029ZM3.52029 11.3036C3.52029 11.487 3.53982 11.5973 3.55901 11.6593C3.56802 11.6884 3.57596 11.7035 3.57955 11.7095C3.58139 11.7126 3.58292 11.7146 3.58292 11.7146L3.58637 11.7176C3.58637 11.7176 3.59201 11.7214 3.59797 11.7246C3.61 11.7311 3.6323 11.7411 3.66932 11.7514C3.74691 11.7731 3.86943 11.7908 4.05649 11.7908V13.3537C3.54387 13.3537 2.97584 13.267 2.55063 12.8622C2.111 12.4436 2 11.8576 2 11.3036H3.52029ZM4.05649 11.7908H4.70469V13.3537H4.05649V11.7908ZM4.70469 11.7908C4.89173 11.7908 5.01425 11.7731 5.09187 11.7514C5.12888 11.7411 5.15119 11.7311 5.16321 11.7246C5.16919 11.7214 5.17483 11.7176 5.17483 11.7176L5.17767 11.7153C5.17767 11.7153 5.17981 11.7126 5.18165 11.7095C5.18524 11.7034 5.19318 11.6883 5.20219 11.6592C5.22139 11.5973 5.24093 11.487 5.24093 11.3036H6.76121C6.76121 11.8576 6.65019 12.4436 6.21055 12.8622C5.78533 13.267 5.21732 13.3537 4.70469 13.3537V11.7908ZM5.24093 11.3036V4.78065H6.76121V11.3036H5.24093ZM5.24093 4.78065C5.24093 4.59725 5.22139 4.48691 5.20219 4.42498C5.19318 4.39588 5.18524 4.38078 5.18165 4.37472C5.17981 4.37161 5.17828 4.36961 5.17828 4.36961L5.17481 4.36667C5.17481 4.36667 5.16919 4.36282 5.16321 4.35962C5.15119 4.35316 5.12888 4.34313 5.09187 4.3328C5.01425 4.31112 4.89173 4.29344 4.70469 4.29344V2.73047C5.21732 2.73047 5.78534 2.81731 6.21055 3.22207C6.65019 3.64056 6.76121 4.22662 6.76121 4.78065H5.24093ZM4.70469 4.29344H4.05649V2.73047H4.70469V4.29344ZM4.05649 4.29344C3.86945 4.29344 3.74693 4.31112 3.66932 4.3328C3.63232 4.34313 3.61001 4.35316 3.59797 4.35962C3.59201 4.36281 3.58637 4.36667 3.58637 4.36667L3.58353 4.36892C3.58353 4.36892 3.58139 4.37159 3.57955 4.3747C3.57596 4.38077 3.56802 4.39586 3.55901 4.42497C3.53982 4.48691 3.52029 4.59725 3.52029 4.78065H2C2 4.22664 2.111 3.64057 2.55063 3.22207C2.97584 2.81731 3.54387 2.73047 4.05649 2.73047V4.29344Z" fill="white"/>
</svg>
