<svg width="17" height="18" viewBox="0 0 17 18" fill="none" xmlns="http://www.w3.org/2000/svg">
<path d="M8.07012 14.8214L8.60762 14.2689L8.57393 14.2342L8.53629 14.2041L8.07012 14.8214ZM13.5921 13.8218L12.8702 13.5771L12.8623 13.6015L12.8561 13.6265L13.5921 13.8218ZM15.1502 8.96475L14.434 8.70247L14.4284 8.71999L15.1502 8.96475ZM10.6753 6.44027L9.92422 6.31933L9.92241 6.33276L10.6753 6.44027ZM10.9994 4.31293L10.2559 4.1503L10.2516 4.17104L10.2484 4.192L10.9994 4.31293ZM10.1518 2.852L9.88118 3.58229L9.90073 3.58995L9.92068 3.59649L10.1518 2.852ZM8.73076 3.31331L9.36182 3.74923L9.36951 3.73697L8.73076 3.31331ZM5.59709 13.8367L7.60394 15.4386L8.53629 14.2041L6.52943 12.6023L5.59709 13.8367ZM7.53261 15.374C7.80012 15.649 8.16088 15.7942 8.43498 15.8732C8.72797 15.9578 9.04013 16 9.30417 16V14.437C9.18179 14.437 9.00779 14.4151 8.84582 14.3684C8.76687 14.3456 8.70311 14.3204 8.65674 14.2968C8.60768 14.2718 8.59765 14.2585 8.60762 14.2689L7.53261 15.374ZM9.30417 16H11.7723V14.437H9.30417V16ZM11.7723 16C12.3422 16 12.9011 15.7823 13.345 15.4497C13.7893 15.1166 14.1756 14.6249 14.3282 14.0171L12.8561 13.6265C12.8093 13.8132 12.672 14.0199 12.4494 14.1866C12.2266 14.3536 11.9751 14.437 11.7723 14.437V16ZM14.3141 14.0666L15.8722 9.20953L14.4284 8.71999L12.8702 13.5771L14.3141 14.0666ZM15.8664 9.22697C16.1031 8.54342 16.0258 7.83255 15.6302 7.28367C15.2385 6.74049 14.6061 6.45331 13.9162 6.45331V8.01628C14.1987 8.01628 14.3452 8.12636 14.4088 8.21431C14.4679 8.29654 14.5213 8.45057 14.434 8.70247L15.8664 9.22697ZM13.9162 6.45331H11.3235V8.01628H13.9162V6.45331ZM11.3235 6.45331C11.3446 6.45331 11.3752 6.46339 11.4 6.49218C11.4124 6.50656 11.4207 6.52272 11.4249 6.53735C11.4292 6.55245 11.4269 6.55761 11.4282 6.54778L9.92241 6.33276C9.79474 7.27778 10.4894 8.01628 11.3235 8.01628V6.45331ZM11.4263 6.56118L11.7504 4.43386L10.2484 4.192L9.92422 6.31933L11.4263 6.56118ZM11.743 4.47556C11.9521 3.46455 11.3256 2.41683 10.3829 2.10751L9.92068 3.59649C10.1496 3.67161 10.296 3.9567 10.2559 4.1503L11.743 4.47556ZM10.4224 2.12171C9.961 1.94101 9.48113 1.98016 9.09159 2.11766C8.70857 2.25287 8.32834 2.51307 8.09201 2.88966L9.36951 3.73697C9.3825 3.7163 9.45101 3.64332 9.58529 3.59592C9.71307 3.55082 9.81905 3.55795 9.88118 3.58229L10.4224 2.12171ZM8.09982 2.87748L5.4448 6.93991L6.70668 7.81159L9.36182 3.74923L8.09982 2.87748ZM3.52029 13.2193V6.69641H2V13.2193H3.52029ZM3.52029 6.69641C3.52029 6.51301 3.53982 6.40267 3.55901 6.34073C3.56802 6.31163 3.57596 6.29654 3.57955 6.29048C3.5814 6.28737 3.58294 6.28537 3.58294 6.28537L3.58637 6.28243C3.58637 6.28243 3.59201 6.27858 3.59797 6.27538C3.61001 6.26894 3.6323 6.25891 3.66932 6.24858C3.74693 6.2269 3.86945 6.20922 4.05649 6.20922V4.64625C3.54387 4.64625 2.97586 4.73307 2.55063 5.13785C2.111 5.55634 2 6.1424 2 6.69641H3.52029ZM4.05649 6.20922H4.7047V4.64625H4.05649V6.20922ZM4.7047 6.20922C4.89174 6.20922 5.01427 6.2269 5.09187 6.24858C5.12889 6.25891 5.15119 6.26894 5.16323 6.2754C5.16919 6.27858 5.17483 6.28244 5.17483 6.28244L5.17767 6.2847C5.17767 6.2847 5.17982 6.28737 5.18166 6.29048C5.18526 6.29654 5.19318 6.31164 5.20219 6.34074C5.2214 6.40268 5.24093 6.51301 5.24093 6.69641H6.76122C6.76122 6.14239 6.65021 5.55634 6.21055 5.13783C5.78533 4.73307 5.21732 4.64625 4.7047 4.64625V6.20922ZM5.24093 6.69641V13.2193H6.76122V6.69641H5.24093ZM5.24093 13.2193C5.24093 13.4028 5.2214 13.5132 5.20219 13.575C5.19318 13.6041 5.18526 13.6193 5.18166 13.6252C5.17982 13.6283 5.17828 13.6304 5.17828 13.6304L5.17483 13.6333C5.17483 13.6333 5.16919 13.6371 5.16321 13.6404C5.15119 13.6468 5.12889 13.6568 5.09187 13.6673C5.01427 13.6888 4.89174 13.7065 4.7047 13.7065V15.2695C5.21732 15.2695 5.78535 15.1827 6.21055 14.7779C6.65021 14.3593 6.76122 13.7734 6.76122 13.2193H5.24093ZM4.7047 13.7065H4.05649V15.2695H4.7047V13.7065ZM4.05649 13.7065C3.86945 13.7065 3.74693 13.6888 3.66932 13.6673C3.63232 13.6568 3.61001 13.6468 3.59799 13.6404C3.59201 13.6373 3.58639 13.6333 3.58639 13.6333L3.58353 13.631C3.58353 13.631 3.5814 13.6283 3.57955 13.6252C3.57596 13.6193 3.56804 13.6041 3.55901 13.575C3.53982 13.5132 3.52029 13.4028 3.52029 13.2193H2C2 13.7734 2.111 14.3593 2.55063 14.7779C2.97584 15.1827 3.54387 15.2695 4.05649 15.2695V13.7065Z" fill="#FFC81C"/>
</svg>
