<svg width="16" height="17" viewBox="0 0 16 17" fill="none" xmlns="http://www.w3.org/2000/svg">
<path fill-rule="evenodd" clip-rule="evenodd" d="M6.85297 0.0313525C6.50445 0.0711216 5.85785 0.206208 5.50596 0.312719C2.75666 1.14508 0.717597 3.38107 0.15047 6.18546C-0.219062 8.01282 0.0995398 9.96949 1.02366 11.5478C1.13007 11.7295 1.21545 11.9071 1.2134 11.9424C1.21134 11.9776 1.01455 12.8502 0.776031 13.8814C0.537513 14.9125 0.34242 15.8073 0.342452 15.8698C0.342516 16.0249 0.432734 16.192 0.563619 16.2794C0.780554 16.4244 0.805858 16.4171 2.89386 15.6104L4.38651 15.0338C4.66272 14.927 4.96757 14.9204 5.24816 15.015C5.70891 15.1703 6.23444 15.296 6.70865 15.3644C7.15095 15.4282 8.38437 15.4177 8.84143 15.3461C11.2563 14.968 13.3045 13.5445 14.4771 11.4292C15.1796 10.1621 15.5239 8.61096 15.4167 7.19572C15.2723 5.28854 14.5208 3.61894 13.2103 2.29383C11.9748 1.04453 10.4024 0.268813 8.65407 0.0460414C8.22693 -0.0083845 7.26968 -0.016178 6.85297 0.0313525ZM7.28594 1.00842C6.45182 1.08944 5.87049 1.22465 5.20127 1.49335C3.38723 2.2217 1.97218 3.73623 1.35589 5.60916C1.10002 6.38674 0.996718 7.11474 1.02616 7.93338C1.07 9.15233 1.40567 10.2519 2.04265 11.2632C2.15179 11.4365 2.25474 11.6276 2.27141 11.688C2.29688 11.7803 2.24281 12.0534 1.93107 13.4065C1.72719 14.2913 1.56417 15.0185 1.56878 15.0226C1.5734 15.0266 2.28434 14.7577 3.14868 14.4249C4.12526 14.0488 4.76388 13.8196 4.83556 13.8192C4.899 13.8188 5.12231 13.8836 5.33181 13.9631C5.80121 14.1411 6.34582 14.2804 6.84374 14.3497C7.32132 14.4161 8.38739 14.3996 8.82539 14.3191C9.92928 14.1161 10.8908 13.702 11.7537 13.0581C12.0645 12.8261 12.6686 12.2416 12.9234 11.9263C14.1848 10.3656 14.6739 8.37841 14.2889 6.37789C14.0207 4.98443 13.2103 3.58944 12.1288 2.65987C11.1339 1.8047 10.0426 1.29251 8.7778 1.08709C8.3982 1.02545 7.56375 0.981449 7.28594 1.00842Z" fill="black" fill-opacity="0.987"/>
</svg>
