<svg width="264" height="264" viewBox="0 0 264 264" fill="none" xmlns="http://www.w3.org/2000/svg">
<path d="M93.8153 76.2386C92.5881 76.2386 91.4972 76.0284 90.5426 75.608C89.5938 75.1875 88.8438 74.6023 88.2926 73.8523C87.7415 73.1023 87.4489 72.2358 87.4148 71.2528H90.6193C90.6477 71.7244 90.804 72.1364 91.0881 72.4886C91.3722 72.8352 91.75 73.1051 92.2216 73.2983C92.6932 73.4915 93.2216 73.5881 93.8068 73.5881C94.4318 73.5881 94.9858 73.4801 95.4688 73.2642C95.9517 73.0426 96.3295 72.7358 96.6023 72.3438C96.875 71.9517 97.0085 71.5 97.0028 70.9886C97.0085 70.4602 96.8722 69.9943 96.5938 69.5909C96.3153 69.1875 95.9119 68.8722 95.3835 68.6449C94.8608 68.4176 94.2301 68.304 93.4915 68.304H91.9489V65.8665H93.4915C94.0994 65.8665 94.6307 65.7614 95.0852 65.5511C95.5455 65.3409 95.9063 65.0455 96.1676 64.6648C96.429 64.2784 96.5568 63.8324 96.5511 63.3267C96.5568 62.8324 96.446 62.4034 96.2188 62.0398C95.9972 61.6705 95.6818 61.3835 95.2727 61.179C94.8693 60.9744 94.3949 60.8722 93.8494 60.8722C93.3153 60.8722 92.821 60.9687 92.3665 61.1619C91.9119 61.3551 91.5455 61.6307 91.267 61.9886C90.9886 62.3409 90.8409 62.7614 90.8239 63.25H87.7812C87.804 62.2727 88.0852 61.4148 88.625 60.6761C89.1705 59.9318 89.8977 59.3523 90.8068 58.9375C91.7159 58.517 92.7358 58.3068 93.8665 58.3068C95.0313 58.3068 96.0426 58.5256 96.9006 58.9631C97.7642 59.3949 98.4318 59.9773 98.9034 60.7102C99.375 61.4432 99.6108 62.2528 99.6108 63.1392C99.6165 64.1222 99.3267 64.946 98.7415 65.6108C98.1619 66.2756 97.4006 66.7102 96.4574 66.9148V67.0511C97.6847 67.2216 98.625 67.6761 99.2784 68.4148C99.9375 69.1477 100.264 70.0597 100.259 71.1506C100.259 72.1278 99.9801 73.0028 99.4233 73.7756C98.8722 74.5426 98.1108 75.1449 97.1392 75.5824C96.1733 76.0199 95.0653 76.2386 93.8153 76.2386ZM106.985 76.2642C106.156 76.2642 105.408 76.1165 104.744 75.821C104.085 75.5199 103.562 75.0767 103.175 74.4915C102.795 73.9062 102.604 73.1847 102.604 72.3267C102.604 71.5881 102.741 70.9773 103.013 70.4943C103.286 70.0114 103.658 69.625 104.13 69.3352C104.602 69.0455 105.133 68.8267 105.724 68.679C106.32 68.5256 106.937 68.4148 107.573 68.3466C108.34 68.267 108.962 68.196 109.44 68.1335C109.917 68.0653 110.263 67.9631 110.479 67.8267C110.701 67.6847 110.812 67.4659 110.812 67.1705V67.1193C110.812 66.4773 110.621 65.9801 110.241 65.6278C109.86 65.2756 109.312 65.0994 108.596 65.0994C107.84 65.0994 107.241 65.2642 106.798 65.5938C106.36 65.9233 106.065 66.3125 105.911 66.7614L103.031 66.3523C103.258 65.5568 103.633 64.892 104.156 64.358C104.678 63.8182 105.317 63.4148 106.073 63.1477C106.829 62.875 107.664 62.7386 108.579 62.7386C109.21 62.7386 109.837 62.8125 110.462 62.9602C111.087 63.108 111.658 63.3523 112.175 63.6932C112.692 64.0284 113.107 64.4858 113.42 65.0653C113.738 65.6449 113.897 66.3693 113.897 67.2386V76H110.931V74.2017H110.829C110.641 74.5653 110.377 74.9062 110.036 75.2244C109.701 75.5369 109.278 75.7898 108.766 75.983C108.261 76.1705 107.667 76.2642 106.985 76.2642ZM107.786 73.9972C108.406 73.9972 108.942 73.875 109.397 73.6307C109.852 73.3807 110.201 73.0511 110.445 72.642C110.695 72.233 110.82 71.7869 110.82 71.304V69.7614C110.724 69.8409 110.559 69.9148 110.326 69.983C110.099 70.0511 109.843 70.1108 109.559 70.1619C109.275 70.2131 108.994 70.2585 108.715 70.2983C108.437 70.3381 108.195 70.3722 107.991 70.4006C107.531 70.4631 107.119 70.5653 106.755 70.7074C106.391 70.8494 106.104 71.0483 105.894 71.304C105.684 71.554 105.579 71.8778 105.579 72.2756C105.579 72.8438 105.786 73.2727 106.201 73.5625C106.616 73.8523 107.144 73.9972 107.786 73.9972ZM125.658 62.9091V65.4403H120.016V76H116.999V62.9091H125.658ZM128.132 80.9091V62.9091H131.166V65.0739H131.345C131.504 64.7557 131.729 64.4176 132.018 64.0597C132.308 63.696 132.7 63.3864 133.195 63.1307C133.689 62.8693 134.32 62.7386 135.087 62.7386C136.098 62.7386 137.01 62.9972 137.822 63.5142C138.641 64.0256 139.288 64.7841 139.766 65.7898C140.249 66.7898 140.49 68.017 140.49 69.4716C140.49 70.9091 140.254 72.1307 139.783 73.1364C139.311 74.142 138.669 74.9091 137.857 75.4375C137.044 75.9659 136.124 76.2301 135.095 76.2301C134.345 76.2301 133.723 76.1051 133.229 75.8551C132.734 75.6051 132.337 75.304 132.036 74.9517C131.74 74.5937 131.51 74.2557 131.345 73.9375H131.217V80.9091H128.132ZM131.158 69.4545C131.158 70.3011 131.277 71.0426 131.516 71.679C131.76 72.3153 132.109 72.8125 132.564 73.1705C133.024 73.5227 133.581 73.6989 134.234 73.6989C134.916 73.6989 135.487 73.517 135.947 73.1534C136.408 72.7841 136.754 72.2812 136.987 71.6449C137.226 71.0028 137.345 70.2727 137.345 69.4545C137.345 68.642 137.229 67.9205 136.996 67.2898C136.763 66.6591 136.416 66.1648 135.956 65.8068C135.496 65.4489 134.922 65.2699 134.234 65.2699C133.575 65.2699 133.016 65.4432 132.555 65.7898C132.095 66.1364 131.746 66.6222 131.507 67.2472C131.274 67.8722 131.158 68.608 131.158 69.4545ZM144.604 80.9091C144.184 80.9091 143.795 80.875 143.437 80.8068C143.085 80.7443 142.803 80.6705 142.593 80.5852L143.309 78.1818C143.758 78.3125 144.158 78.375 144.511 78.3693C144.863 78.3636 145.173 78.2528 145.44 78.0369C145.712 77.8267 145.942 77.4744 146.13 76.9801L146.394 76.2727L141.647 62.9091H144.92L147.937 72.7955H148.073L151.099 62.9091H154.38L149.138 77.5852C148.894 78.2784 148.57 78.8722 148.167 79.3665C147.763 79.8665 147.269 80.2472 146.684 80.5085C146.104 80.7756 145.411 80.9091 144.604 80.9091ZM155.79 72.4119H158.85C158.879 72.9006 159.097 73.2784 159.506 73.5455C159.915 73.8125 160.447 73.946 161.1 73.946C161.765 73.946 162.325 73.8011 162.779 73.5114C163.239 73.2159 163.469 72.7699 163.469 72.1733C163.469 71.821 163.381 71.5114 163.205 71.2443C163.029 70.9716 162.782 70.7614 162.464 70.6136C162.146 70.4659 161.771 70.392 161.339 70.392H159.336V68.2017H161.339C161.981 68.2017 162.467 68.054 162.796 67.7585C163.131 67.4631 163.299 67.0909 163.299 66.642C163.299 66.1591 163.123 65.767 162.771 65.4659C162.424 65.1648 161.944 65.0142 161.33 65.0142C160.717 65.0142 160.205 65.1534 159.796 65.4318C159.393 65.7102 159.183 66.0682 159.165 66.5057H156.123C156.134 65.7443 156.362 65.0824 156.805 64.5199C157.254 63.9574 157.856 63.5199 158.612 63.2074C159.373 62.8949 160.231 62.7386 161.185 62.7386C162.208 62.7386 163.092 62.892 163.836 63.1989C164.58 63.5057 165.154 63.9347 165.558 64.4858C165.961 65.0312 166.163 65.6733 166.163 66.4119C166.163 67.1222 165.941 67.7102 165.498 68.1761C165.055 68.6364 164.458 68.9659 163.708 69.1648V69.3011C164.225 69.3295 164.691 69.4773 165.106 69.7443C165.521 70.0057 165.85 70.3608 166.094 70.8097C166.339 71.2585 166.461 71.7784 166.461 72.3693C166.461 73.1705 166.231 73.8636 165.771 74.4489C165.31 75.0284 164.677 75.4744 163.87 75.7869C163.069 76.0994 162.151 76.2557 161.117 76.2557C160.112 76.2557 159.211 76.1051 158.415 75.804C157.626 75.4972 156.998 75.0568 156.532 74.483C156.066 73.9091 155.819 73.2187 155.79 72.4119ZM171.864 71.8239L177.106 62.9091H180.276V76H177.293V67.0767L172.069 76H168.89V62.9091H171.864V71.8239ZM181.979 65.4403V62.9091H193.433V65.4403H189.197V76H186.214V65.4403H181.979ZM201.146 76.2557C199.834 76.2557 198.7 75.983 197.746 75.4375C196.797 74.8864 196.067 74.108 195.555 73.1023C195.044 72.0909 194.788 70.9006 194.788 69.5312C194.788 68.1847 195.044 67.0028 195.555 65.9858C196.072 64.9631 196.794 64.1676 197.72 63.5994C198.646 63.0256 199.734 62.7386 200.984 62.7386C201.791 62.7386 202.553 62.8693 203.268 63.1307C203.99 63.3864 204.626 63.7841 205.178 64.3239C205.734 64.8636 206.172 65.5511 206.49 66.3864C206.808 67.2159 206.967 68.2045 206.967 69.3523V70.2983H196.237V68.2188H204.01C204.004 67.6278 203.876 67.1023 203.626 66.642C203.376 66.1761 203.027 65.8097 202.578 65.5426C202.135 65.2756 201.618 65.142 201.027 65.142C200.396 65.142 199.842 65.2955 199.365 65.6023C198.888 65.9034 198.516 66.3011 198.249 66.7955C197.987 67.2841 197.854 67.821 197.848 68.4062V70.2216C197.848 70.983 197.987 71.6364 198.266 72.1818C198.544 72.7216 198.933 73.1364 199.433 73.4261C199.933 73.7102 200.518 73.8523 201.189 73.8523C201.638 73.8523 202.044 73.7898 202.408 73.6648C202.771 73.5341 203.087 73.3438 203.354 73.0938C203.621 72.8438 203.822 72.5341 203.959 72.1648L206.839 72.4886C206.658 73.25 206.311 73.9148 205.8 74.483C205.294 75.0455 204.646 75.483 203.857 75.7955C203.067 76.1023 202.163 76.2557 201.146 76.2557ZM93.5256 109.449V87.5455H96.6193V109.449H93.5256ZM93.5256 105.256C92.5653 105.256 91.6875 105.094 90.892 104.77C90.0966 104.446 89.4091 103.986 88.8295 103.389C88.2557 102.793 87.8097 102.082 87.4915 101.259C87.179 100.429 87.0227 99.5114 87.0227 98.5057C87.0227 97.5 87.179 96.5824 87.4915 95.7528C87.8097 94.9233 88.2557 94.2102 88.8295 93.6136C89.4091 93.0114 90.0966 92.5483 90.892 92.2244C91.6875 91.9006 92.5653 91.7386 93.5256 91.7386H94.1818V105.256H93.5256ZM93.5256 102.767H93.9091V94.2273H93.5256C92.9801 94.2273 92.4972 94.3409 92.0767 94.5682C91.6619 94.7898 91.3125 95.0994 91.0284 95.4972C90.75 95.8892 90.5369 96.3437 90.3892 96.8608C90.2472 97.3722 90.1761 97.9205 90.1761 98.5057C90.1761 99.2841 90.304 99.9972 90.5597 100.645C90.8153 101.287 91.1903 101.801 91.6847 102.188C92.1847 102.574 92.7983 102.767 93.5256 102.767ZM96.6193 105.256H95.9631V91.7386H96.6193C97.5795 91.7386 98.4574 91.9006 99.2528 92.2244C100.048 92.5483 100.733 93.0114 101.307 93.6136C101.886 94.2102 102.332 94.9233 102.645 95.7528C102.963 96.5824 103.122 97.5 103.122 98.5057C103.122 99.5114 102.963 100.429 102.645 101.259C102.332 102.082 101.886 102.793 101.307 103.389C100.733 103.986 100.048 104.446 99.2528 104.77C98.4574 105.094 97.5795 105.256 96.6193 105.256ZM96.6193 102.767C97.1705 102.767 97.6534 102.656 98.0682 102.435C98.483 102.213 98.8295 101.906 99.108 101.514C99.392 101.122 99.6051 100.67 99.7472 100.159C99.8892 99.642 99.9602 99.0909 99.9602 98.5057C99.9602 97.7273 99.8352 97.0142 99.5852 96.3665C99.3352 95.7187 98.9602 95.2017 98.4602 94.8153C97.9659 94.4233 97.3523 94.2273 96.6193 94.2273H96.2358V102.767H96.6193ZM111.436 105.256C110.158 105.256 109.05 104.974 108.112 104.412C107.175 103.849 106.447 103.062 105.93 102.051C105.419 101.04 105.163 99.858 105.163 98.5057C105.163 97.1534 105.419 95.9687 105.93 94.9517C106.447 93.9347 107.175 93.1449 108.112 92.5824C109.05 92.0199 110.158 91.7386 111.436 91.7386C112.714 91.7386 113.822 92.0199 114.76 92.5824C115.697 93.1449 116.422 93.9347 116.933 94.9517C117.45 95.9687 117.709 97.1534 117.709 98.5057C117.709 99.858 117.45 101.04 116.933 102.051C116.422 103.062 115.697 103.849 114.76 104.412C113.822 104.974 112.714 105.256 111.436 105.256ZM111.453 102.784C112.146 102.784 112.726 102.594 113.192 102.213C113.658 101.827 114.004 101.31 114.232 100.662C114.464 100.014 114.581 99.2926 114.581 98.4972C114.581 97.696 114.464 96.9716 114.232 96.3239C114.004 95.6705 113.658 95.1506 113.192 94.7642C112.726 94.3778 112.146 94.1847 111.453 94.1847C110.743 94.1847 110.152 94.3778 109.68 94.7642C109.214 95.1506 108.865 95.6705 108.632 96.3239C108.405 96.9716 108.291 97.696 108.291 98.4972C108.291 99.2926 108.405 100.014 108.632 100.662C108.865 101.31 109.214 101.827 109.68 102.213C110.152 102.594 110.743 102.784 111.453 102.784ZM118.885 94.4403V91.9091H130.339V94.4403H126.104V105H123.121V94.4403H118.885ZM137.967 105.256C136.689 105.256 135.581 104.974 134.643 104.412C133.706 103.849 132.979 103.062 132.462 102.051C131.95 101.04 131.695 99.858 131.695 98.5057C131.695 97.1534 131.95 95.9687 132.462 94.9517C132.979 93.9347 133.706 93.1449 134.643 92.5824C135.581 92.0199 136.689 91.7386 137.967 91.7386C139.246 91.7386 140.354 92.0199 141.291 92.5824C142.229 93.1449 142.953 93.9347 143.464 94.9517C143.982 95.9687 144.24 97.1534 144.24 98.5057C144.24 99.858 143.982 101.04 143.464 102.051C142.953 103.062 142.229 103.849 141.291 104.412C140.354 104.974 139.246 105.256 137.967 105.256ZM137.984 102.784C138.678 102.784 139.257 102.594 139.723 102.213C140.189 101.827 140.536 101.31 140.763 100.662C140.996 100.014 141.112 99.2926 141.112 98.4972C141.112 97.696 140.996 96.9716 140.763 96.3239C140.536 95.6705 140.189 95.1506 139.723 94.7642C139.257 94.3778 138.678 94.1847 137.984 94.1847C137.274 94.1847 136.683 94.3778 136.212 94.7642C135.746 95.1506 135.396 95.6705 135.163 96.3239C134.936 96.9716 134.822 97.696 134.822 98.4972C134.822 99.2926 134.936 100.014 135.163 100.662C135.396 101.31 135.746 101.827 136.212 102.213C136.683 102.594 137.274 102.784 137.984 102.784ZM155.518 91.9091V94.4403H149.876V105H146.859V91.9091H155.518ZM157.991 109.909V91.9091H161.026V94.0739H161.205C161.364 93.7557 161.588 93.4176 161.878 93.0597C162.168 92.696 162.56 92.3864 163.054 92.1307C163.548 91.8693 164.179 91.7386 164.946 91.7386C165.957 91.7386 166.869 91.9972 167.682 92.5142C168.5 93.0256 169.148 93.7841 169.625 94.7898C170.108 95.7898 170.349 97.017 170.349 98.4716C170.349 99.9091 170.114 101.131 169.642 102.136C169.17 103.142 168.528 103.909 167.716 104.438C166.903 104.966 165.983 105.23 164.955 105.23C164.205 105.23 163.582 105.105 163.088 104.855C162.594 104.605 162.196 104.304 161.895 103.952C161.599 103.594 161.369 103.256 161.205 102.938H161.077V109.909H157.991ZM161.017 98.4545C161.017 99.3011 161.136 100.043 161.375 100.679C161.619 101.315 161.969 101.812 162.423 102.17C162.884 102.523 163.44 102.699 164.094 102.699C164.776 102.699 165.347 102.517 165.807 102.153C166.267 101.784 166.614 101.281 166.847 100.645C167.085 100.003 167.205 99.2727 167.205 98.4545C167.205 97.642 167.088 96.9205 166.855 96.2898C166.622 95.6591 166.276 95.1648 165.815 94.8068C165.355 94.4489 164.781 94.2699 164.094 94.2699C163.435 94.2699 162.875 94.4432 162.415 94.7898C161.955 95.1364 161.605 95.6222 161.366 96.2472C161.134 96.8722 161.017 97.608 161.017 98.4545ZM176.759 105.264C175.929 105.264 175.182 105.116 174.517 104.821C173.858 104.52 173.335 104.077 172.949 103.491C172.568 102.906 172.378 102.185 172.378 101.327C172.378 100.588 172.514 99.9773 172.787 99.4943C173.06 99.0114 173.432 98.625 173.903 98.3352C174.375 98.0455 174.906 97.8267 175.497 97.679C176.094 97.5256 176.71 97.4148 177.347 97.3466C178.114 97.267 178.736 97.196 179.213 97.1335C179.69 97.0653 180.037 96.9631 180.253 96.8267C180.474 96.6847 180.585 96.4659 180.585 96.1705V96.1193C180.585 95.4773 180.395 94.9801 180.014 94.6278C179.634 94.2756 179.085 94.0994 178.369 94.0994C177.614 94.0994 177.014 94.2642 176.571 94.5938C176.134 94.9233 175.838 95.3125 175.685 95.7614L172.804 95.3523C173.031 94.5568 173.406 93.892 173.929 93.358C174.452 92.8182 175.091 92.4148 175.847 92.1477C176.602 91.875 177.438 91.7386 178.352 91.7386C178.983 91.7386 179.611 91.8125 180.236 91.9602C180.861 92.108 181.432 92.3523 181.949 92.6932C182.466 93.0284 182.881 93.4858 183.193 94.0653C183.511 94.6449 183.67 95.3693 183.67 96.2386V105H180.705V103.202H180.602C180.415 103.565 180.151 103.906 179.81 104.224C179.474 104.537 179.051 104.79 178.54 104.983C178.034 105.17 177.44 105.264 176.759 105.264ZM177.56 102.997C178.179 102.997 178.716 102.875 179.17 102.631C179.625 102.381 179.974 102.051 180.219 101.642C180.469 101.233 180.594 100.787 180.594 100.304V98.7614C180.497 98.8409 180.332 98.9148 180.099 98.983C179.872 99.0511 179.616 99.1108 179.332 99.1619C179.048 99.2131 178.767 99.2585 178.489 99.2983C178.21 99.3381 177.969 99.3722 177.764 99.4006C177.304 99.4631 176.892 99.5653 176.528 99.7074C176.165 99.8494 175.878 100.048 175.668 100.304C175.457 100.554 175.352 100.878 175.352 101.276C175.352 101.844 175.56 102.273 175.974 102.562C176.389 102.852 176.918 102.997 177.56 102.997ZM192.713 109.449V87.5455H195.807V109.449H192.713ZM192.713 105.256C191.753 105.256 190.875 105.094 190.08 104.77C189.284 104.446 188.597 103.986 188.017 103.389C187.443 102.793 186.997 102.082 186.679 101.259C186.366 100.429 186.21 99.5114 186.21 98.5057C186.21 97.5 186.366 96.5824 186.679 95.7528C186.997 94.9233 187.443 94.2102 188.017 93.6136C188.597 93.0114 189.284 92.5483 190.08 92.2244C190.875 91.9006 191.753 91.7386 192.713 91.7386H193.369V105.256H192.713ZM192.713 102.767H193.097V94.2273H192.713C192.168 94.2273 191.685 94.3409 191.264 94.5682C190.849 94.7898 190.5 95.0994 190.216 95.4972C189.938 95.8892 189.724 96.3437 189.577 96.8608C189.435 97.3722 189.364 97.9205 189.364 98.5057C189.364 99.2841 189.491 99.9972 189.747 100.645C190.003 101.287 190.378 101.801 190.872 102.188C191.372 102.574 191.986 102.767 192.713 102.767ZM195.807 105.256H195.151V91.7386H195.807C196.767 91.7386 197.645 91.9006 198.44 92.2244C199.236 92.5483 199.92 93.0114 200.494 93.6136C201.074 94.2102 201.52 94.9233 201.832 95.7528C202.151 96.5824 202.31 97.5 202.31 98.5057C202.31 99.5114 202.151 100.429 201.832 101.259C201.52 102.082 201.074 102.793 200.494 103.389C199.92 103.986 199.236 104.446 198.44 104.77C197.645 105.094 196.767 105.256 195.807 105.256ZM195.807 102.767C196.358 102.767 196.841 102.656 197.256 102.435C197.67 102.213 198.017 101.906 198.295 101.514C198.58 101.122 198.793 100.67 198.935 100.159C199.077 99.642 199.148 99.0909 199.148 98.5057C199.148 97.7273 199.023 97.0142 198.773 96.3665C198.523 95.7187 198.148 95.2017 197.648 94.8153C197.153 94.4233 196.54 94.2273 195.807 94.2273H195.423V102.767H195.807ZM207.888 100.824L213.129 91.9091H216.3V105H213.317V96.0767L208.092 105H204.913V91.9091H207.888V100.824ZM226.38 97.2699V99.8097H219.332V97.2699H226.38ZM221.778 91.9091V105H218.684V91.9091H221.778ZM230.335 105.256C229.073 105.256 227.979 104.969 227.053 104.395C226.133 103.821 225.42 103.026 224.914 102.009C224.408 100.991 224.156 99.8153 224.156 98.4801C224.156 97.1449 224.408 95.9716 224.914 94.9602C225.42 93.9489 226.133 93.1591 227.053 92.5909C227.979 92.0227 229.073 91.7386 230.335 91.7386C231.59 91.7386 232.678 92.0227 233.599 92.5909C234.525 93.1591 235.241 93.9489 235.746 94.9602C236.258 95.9716 236.513 97.1449 236.513 98.4801C236.513 99.8153 236.258 100.991 235.746 102.009C235.241 103.026 234.525 103.821 233.599 104.395C232.678 104.969 231.59 105.256 230.335 105.256ZM230.335 102.699C231.079 102.699 231.687 102.511 232.158 102.136C232.63 101.761 232.977 101.256 233.198 100.619C233.42 99.983 233.531 99.2699 233.531 98.4801C233.531 97.6903 233.42 96.9773 233.198 96.3409C232.977 95.7045 232.63 95.2017 232.158 94.8324C231.687 94.4574 231.079 94.2699 230.335 94.2699C229.585 94.2699 228.971 94.4574 228.494 94.8324C228.022 95.2017 227.675 95.7045 227.454 96.3409C227.232 96.9773 227.121 97.6903 227.121 98.4801C227.121 99.2756 227.232 99.9915 227.454 100.628C227.675 101.264 228.022 101.77 228.494 102.145C228.971 102.514 229.585 102.699 230.335 102.699Z" fill="#BFBFBF"/>
<rect x="0.5" y="0.5" width="263" height="263" rx="6.5" stroke="#D9D9D9"/>
<mask id="mask0_517_952" style="mask-type:alpha" maskUnits="userSpaceOnUse" x="1" y="138" width="131" height="125">
<rect x="1.11837" y="138.118" width="130.763" height="124.763" rx="6.88163" fill="#D9D9D9" stroke="#6B6B6B" stroke-width="0.236742"/>
</mask>
<g mask="url(#mask0_517_952)">
<g clip-path="url(#clip0_517_952)">
<path opacity="0.016" fill-rule="evenodd" clip-rule="evenodd" d="M52.709 148.592C52.8766 148.159 53.1577 148.089 53.5532 148.381C53.3025 148.577 53.0209 148.647 52.709 148.592Z" fill="#D5D3A9"/>
<path opacity="0.196" fill-rule="evenodd" clip-rule="evenodd" d="M57.3516 148.591C57.9142 148.872 57.9142 148.872 57.3516 148.591Z" fill="#D0C7B7"/>
<path opacity="0.435" fill-rule="evenodd" clip-rule="evenodd" d="M53.5525 151.968C52.8015 151.474 52.3794 150.771 52.2861 149.858C52.9062 150.161 53.3283 150.864 53.5525 151.968Z" fill="#B8AF9F"/>
<path opacity="0.075" fill-rule="evenodd" clip-rule="evenodd" d="M55.6637 153.235C56.0964 153.402 56.1669 153.684 55.8748 154.079C55.6789 153.828 55.6084 153.547 55.6637 153.235Z" fill="#DBC6BC"/>
<g filter="url(#filter0_d_517_952)">
<path d="M59.1821 161.182C57.5211 157.911 56.0847 155.906 54.1852 152.813C53.5727 151.461 50.8514 146.686 49.0515 145.986C45.977 144.79 51.4414 155.556 52.6395 158.229C52.6395 158.229 54.3561 161.366 55.5942 163.293C56.0762 164.043 56.2274 164.137 56.8605 165.192C57.0134 165.447 57.1399 166.11 56.4384 165.825C52.9188 162.944 46.0495 151.805 42.9309 148.519C39.5541 146.155 41.946 152.177 43.5641 155.484C44.1973 156.961 45.166 158.364 45.8857 160.338C47.2203 163.999 38.2746 152.719 35.9661 149.363C35.4977 148.714 34.8586 148.34 34.0666 148.519C32.9989 148.519 34.8881 153.584 35.9661 156.117C36.8787 158.227 38.3916 160.794 39.1319 163.293C40.4666 167.798 33.0025 154.986 29.8455 150.84C29.4945 150.55 29.213 150.62 29.0013 151.051L29.8455 158.227C29.9008 158.597 29.7601 158.879 29.4234 159.072C28.4365 159.072 25.1387 151.715 24.6375 151.051C23.8004 150.907 23.8024 151.188 23.5139 151.896V153.162C23.715 156.71 23.0115 156.991 21.4033 154.006C19.8837 151.305 18.6596 151.474 18.2376 151.896C17.4711 152.651 18.7087 154.434 17.6044 154.85C17.1416 155.025 16.338 154.85 16.338 154.85C16.338 154.85 9.37326 147.041 7.89583 147.041C6.64856 147.041 6.85175 149.014 7.47372 150.207C7.72828 150.883 12.223 156.68 14.4385 159.494C14.9038 160.105 15.3963 160.668 15.9159 161.182C17.1823 162.435 18.6597 164.347 18.4486 164.981C18.0714 166.113 11.3404 157.382 6.2074 153.162C4.11897 151.445 0.719957 147.748 -0.478041 149.014C-1.49762 150.092 0.719968 152.74 0.719968 152.74C0.719968 152.74 3.14906 156.018 4.51896 157.594C4.51896 157.594 7.26334 160.329 7.05161 160.76C6.83988 161.191 6.55846 161.261 6.2074 160.971C5.06993 160.263 0.577224 155.979 -0.47805 157.456C-0.846049 157.971 -0.144224 161.153 0.719968 163.293C1.0799 164.184 1.88088 164.486 1.9863 165.403C2.5427 165.934 3.10551 166.497 3.67474 167.092C3.02831 167.48 2.4655 167.34 1.9863 166.67C1.33281 166.534 1.05141 166.112 1.14208 165.403H0.719968V251.091C5.50551 247.854 10.4301 244.829 15.4938 242.016C24.5784 237.586 33.5834 232.943 42.5088 228.086C40.8518 228.352 39.1633 228.633 37.4435 228.931C33.4138 230.452 29.3333 231.858 25.2023 233.152C19.3304 235.554 13.5616 238.156 7.89583 240.961L7.47372 240.539C8.00056 239.712 8.70409 239.079 9.58427 238.639L45.8857 220.489C44.7599 220.207 43.6346 220.207 42.5088 220.489C34.2121 222.784 26.192 225.739 18.4486 229.353C14.6762 230.117 14.5355 229.554 18.0265 227.664C26.4018 223.984 34.5626 219.903 42.5088 215.423C41.946 215.142 41.3832 215.142 40.8204 215.423C34.7684 217.864 28.5775 219.693 22.2476 220.911C23.7908 219.575 25.4792 218.45 27.3129 217.534C33.5867 214.931 39.7776 212.257 45.8857 209.514C42.5558 209.517 39.2493 209.869 35.9661 210.569C35.4736 210.428 34.9812 210.287 34.4887 210.147C39.1987 207.458 44.264 205.769 49.6847 205.082C49.5897 210.728 51.7002 215.301 56.0163 218.8C57.9901 219.216 58.9044 218.442 58.76 216.478C55.7268 213.931 53.8978 210.694 53.2726 206.77C52.0274 200.896 53.7859 196.183 58.549 192.629C64.8692 190.299 68.9498 192.339 70.7902 198.75C71.4546 199.227 72.1582 199.298 72.9007 198.961C73.9256 197.148 73.9957 195.248 73.1118 193.262C69.7847 188.393 65.212 186.493 59.3932 187.564C53.9889 189.801 50.8936 193.811 50.1068 199.594C49.363 199.654 48.6594 199.513 47.9963 199.172C47.6467 197.175 47.8578 195.206 48.6294 193.262C54.062 183.754 61.5894 181.573 71.2123 186.72C74.2401 189.612 76.7026 192.918 78.5992 196.639C78.7668 193.675 78.7668 190.72 78.5992 187.775C80.521 191.336 82.2095 194.995 83.6645 198.75C83.9085 193.178 83.6974 187.62 83.0313 182.077C83.1719 181.303 83.3129 180.529 83.4535 179.755C85.2698 186.598 86.8877 193.492 88.3077 200.438C88.8155 194.249 89.3081 188.058 89.7851 181.865C89.9257 182.147 90.0666 182.428 90.2072 182.71C91.0941 189.379 92.2899 195.993 93.7951 202.549C94.3658 196.657 94.7174 190.748 94.8504 184.82H96.1167C96.1167 184.82 97.7672 197.782 98.8605 204.237C99.34 199.863 99.9026 195.502 100.549 191.152C100.632 190.398 100.983 189.835 101.604 189.463C102.343 199.487 103.398 209.477 104.77 219.433C106.258 227.132 108.509 234.589 111.524 241.805C112.895 246.896 111.066 250.132 106.036 251.514C100.186 250.859 94.3468 250.085 88.5188 249.192C86.1693 248.737 83.9182 248.033 81.765 247.081C82.4687 246.941 83.1719 246.8 83.8756 246.659C86.4424 246.601 88.9751 246.32 91.4735 245.815C82.9448 244.32 74.3616 243.476 65.7248 243.282C69.672 244.411 73.612 245.536 77.5439 246.659C73.7589 247.126 69.9599 247.337 66.1469 247.292C65.8249 247.617 65.4028 247.828 64.8806 247.926C66.2293 248.002 67.4956 248.213 68.6796 248.559C71.6179 249.029 74.5727 249.522 77.5439 250.036C70.8066 250.941 64.0529 251.785 57.2827 252.569C58.9567 253.028 60.6452 253.379 62.348 253.624C64.5902 253.881 66.8417 254.092 69.1017 254.257C85.201 253.687 104.77 256.44 117.011 257.423C121.481 257.782 126.159 255.551 127.21 250.953C128.52 245.223 123.532 239.853 115.956 240.961C114.446 238.453 113.249 235.779 112.368 232.941C111.108 228.615 109.982 224.253 108.991 219.855C106.931 205.862 106.032 178.35 105.403 177.644C104.774 176.939 104.485 177.692 104.137 178.066C103.293 179.08 100.195 186.273 99.7047 185.242C99.0661 183.901 99.3117 177.644 98.8605 177.222C98.0144 176.431 97.0293 177.644 96.1167 178.35C95.4746 178.847 95.0741 179.093 94.4283 179.333C93.9914 175.056 95.0089 161.612 91.6846 165.825C91.203 166.436 91.0865 166.88 90.8404 167.514C90.1612 170.394 89.2203 175.956 88.3077 175.956C87.5318 175.956 86.4817 169.78 85.564 166.67C83.4535 162.448 82.6092 166.67 82.6092 166.67C82.6092 166.67 82.0048 169.323 81.2002 172.018C80.3182 174.973 77.7676 160.919 75.6444 154.428C75.4697 154.235 75.2586 154.095 75.0113 154.006C73.4917 153.669 73.3911 164.738 72.2675 164.981C71.2925 165.192 68.6796 153.795 67.4133 153.584C66.4616 153.426 66.5889 154.937 66.5691 155.906C66.3715 159.284 66.5395 161.951 66.2153 165.825L66.2148 165.831C66.132 166.82 66.0033 168.358 65.5138 168.358C64.8096 168.358 64.642 167.026 64.5268 166.531C63.9988 164.263 63.5083 162.291 62.348 160.338L62.3399 160.332C61.9664 160.077 61.5901 159.819 61.0816 159.916C60.0966 160.103 61.0175 161.643 60.6595 162.448C60.153 163.124 59.4636 161.886 59.1821 161.182Z" fill="#BFBFBF"/>
</g>
<path opacity="0.047" fill-rule="evenodd" clip-rule="evenodd" d="M45.9541 150.28C46.5168 150.561 46.5168 150.561 45.9541 150.28Z" fill="#BEBFA9"/>
<path opacity="0.039" fill-rule="evenodd" clip-rule="evenodd" d="M1.63281 168.034C1.80021 167.601 2.08161 167.531 2.47703 167.823C2.22612 168.019 1.94471 168.089 1.63281 168.034Z" fill="#CBCCB1"/>
<path opacity="0.596" fill-rule="evenodd" clip-rule="evenodd" d="M0.788086 174.366C1.52689 174.855 1.949 175.559 2.05442 176.476C1.77301 176.476 1.4916 176.476 1.2102 176.476C1.28262 176.058 1.14192 175.776 0.788086 175.632C0.788086 175.21 0.788086 174.788 0.788086 174.366Z" fill="#CBC4BA"/>
<path opacity="0.071" fill-rule="evenodd" clip-rule="evenodd" d="M102.939 176.451C103.272 176.57 103.554 176.781 103.784 177.084C103.228 177.307 102.947 177.096 102.939 176.451Z" fill="#C6BEB7"/>
<path opacity="0.01" fill-rule="evenodd" clip-rule="evenodd" d="M99.5625 179.828C100.589 180.271 100.589 180.552 99.5625 180.673C99.5625 180.391 99.5625 180.11 99.5625 179.828Z" fill="#FEFFFE"/>
<path opacity="0.999" fill-rule="evenodd" clip-rule="evenodd" d="M66.2151 247.366C64.4823 247.253 62.7939 247.464 61.1498 247.999C63.6592 248.489 66.1919 248.7 68.7477 248.632C71.6861 249.103 74.6408 249.595 77.6121 250.109C70.8748 251.014 64.121 251.859 57.3508 252.642C59.0249 253.101 60.7133 253.452 62.4161 253.697C62.2388 254.37 61.9577 255.003 61.5719 255.597C61.9003 256.483 62.463 257.116 63.2603 257.496C64.6014 258.021 66.0083 258.443 67.4814 258.763C67.53 259.796 67.9521 260.64 68.7477 261.295C68.4358 261.24 68.1543 261.31 67.9035 261.506C68.2754 261.805 68.5565 262.157 68.7477 262.562C67.1999 262.562 65.6524 262.562 64.1045 262.562C62.9885 261.519 61.7926 260.535 60.5166 259.607C60.2351 259.888 60.2351 260.17 60.5166 260.451C61.2371 261.1 61.8703 261.804 62.4161 262.562C61.1498 262.562 59.8834 262.562 58.6171 262.562C56.9299 260.804 55.312 258.975 53.7629 257.074C53.9452 258.962 54.4378 260.792 55.2402 262.562C53.9739 262.562 52.7076 262.562 51.4412 262.562C50.5979 260.112 49.5426 257.72 48.2754 255.386C48.3311 257.766 48.4016 260.159 48.4865 262.562C47.5017 262.562 46.5165 262.562 45.5317 262.562C45.0176 259.556 44.2434 256.601 43.2101 253.697C42.6449 256.621 42.4339 259.576 42.5769 262.562C41.4513 262.562 40.3257 262.562 39.2001 262.562C39.2703 259.182 39.1999 255.805 38.989 252.431C37.7929 255.809 36.5969 259.186 35.4011 262.562C34.2754 262.562 33.1498 262.562 32.0242 262.562C32.7922 259.922 33.2847 257.249 33.5016 254.542C31.7997 257.102 30.3223 259.775 29.0694 262.562C27.9438 262.562 26.8182 262.562 25.6926 262.562C26.6619 259.586 27.5765 256.631 28.4363 253.697C26.3264 256.719 24.1455 259.674 21.8936 262.562C20.6272 262.562 19.3609 262.562 18.0946 262.562C19.389 260.349 20.9367 258.309 22.7378 256.441C22.5971 256.371 22.4564 256.3 22.3157 256.23C19.9896 258.443 17.5977 260.554 15.1398 262.562C13.8735 262.562 12.6072 262.562 11.3408 262.562C16.6407 257.656 22.1281 252.942 27.8031 248.421C27.5921 248.35 27.381 248.28 27.1699 248.21C19.6572 252.421 12.5517 257.205 5.8534 262.562C4.44637 262.562 3.03934 262.562 1.63231 262.562C3.50367 260.194 5.4735 257.873 7.54184 255.597C7.26042 255.315 6.97904 255.315 6.69762 255.597C4.77799 257.027 2.80814 258.364 0.788086 259.607C0.788086 258.763 0.788086 257.918 0.788086 257.074C11.9662 250.569 23.2224 244.167 34.5569 237.868C22.4682 241.029 11.212 246.023 0.788086 252.853C0.788086 252.29 0.788086 251.727 0.788086 251.165C5.57363 247.927 10.4982 244.902 15.5619 242.089C24.6465 237.66 33.6516 233.016 42.5769 228.16C40.9199 228.425 39.2315 228.706 37.5116 229.004C33.4819 230.525 29.4015 231.932 25.2704 233.225C19.3986 235.627 13.6297 238.23 7.96395 241.034C7.82326 240.893 7.68253 240.752 7.54184 240.612C8.06868 239.785 8.77221 239.152 9.65239 238.712C21.7398 232.669 33.8402 226.619 45.9538 220.562C44.8281 220.28 43.7027 220.28 42.5769 220.562C34.2802 222.857 26.2601 225.812 18.5167 229.426C14.7443 230.19 14.6036 229.627 18.0946 227.738C26.47 224.057 34.6307 219.976 42.5769 215.496C42.0141 215.215 41.4513 215.215 40.8885 215.496C34.8366 217.937 28.6456 219.766 22.3157 220.984C23.8589 219.649 25.5473 218.523 27.381 217.607C33.6548 215.004 39.8457 212.331 45.9538 209.587C42.624 209.59 39.3174 209.942 36.0342 210.642C35.5418 210.502 35.0493 210.361 34.5569 210.22C39.2668 207.531 44.3321 205.842 49.7528 205.155C49.6578 210.801 51.7684 215.374 56.0845 218.873C58.0582 219.289 58.9725 218.515 58.8282 216.552C55.7949 214.004 53.9659 210.767 53.3407 206.843C52.0955 200.969 53.854 196.256 58.6171 192.702C64.9374 190.372 69.0179 192.412 70.8583 198.823C71.5227 199.3 72.2264 199.371 72.9688 199.034C73.9937 197.221 74.0638 195.321 73.1799 193.336C69.8528 188.466 65.2801 186.567 59.4613 187.637C54.0571 189.874 50.9617 193.884 50.1749 199.667C49.4312 199.728 48.7275 199.587 48.0644 199.245C47.7149 197.249 47.9259 195.279 48.6975 193.336C54.1301 183.827 61.6576 181.646 71.2804 186.793C74.3082 189.685 76.7708 192.992 78.6673 196.713C78.8349 193.748 78.8349 190.793 78.6673 187.848C80.5892 191.41 82.2776 195.068 83.7326 198.823C83.9766 193.251 83.7656 187.693 83.0995 182.15C83.24 181.376 83.381 180.602 83.5216 179.828C85.3379 186.671 86.9559 193.566 88.3758 200.511C88.8836 194.323 89.3762 188.131 89.8532 181.939C89.9938 182.22 90.1348 182.501 90.2753 182.783C91.1622 189.453 92.358 196.066 93.8633 202.622C94.434 196.731 94.7856 190.821 94.9185 184.893C95.3407 184.893 95.7628 184.893 96.1849 184.893C96.921 191.383 97.8353 197.855 98.9286 204.31C99.4081 199.937 99.9708 195.575 100.617 191.225C100.7 190.471 101.051 189.909 101.672 189.537C102.411 199.56 103.466 209.55 104.838 219.506C106.326 227.205 108.577 234.662 111.592 241.878C112.963 246.969 111.134 250.205 106.104 251.587C100.254 250.932 94.415 250.158 88.5869 249.265C86.2374 248.81 83.9863 248.106 81.8331 247.155C82.5368 247.014 83.24 246.873 83.9437 246.733C86.5105 246.674 89.0432 246.393 91.5417 245.888C83.0129 244.393 74.4298 243.549 65.793 243.356C69.7401 244.484 73.6801 245.61 77.6121 246.733C73.827 247.199 70.028 247.41 66.2151 247.366Z" fill="#FBFAFA"/>
<path fill-rule="evenodd" clip-rule="evenodd" d="M82.6789 217.816C88.306 216.333 94.1254 224.321 91.7543 229.635C89.6923 234.257 83.4486 236.124 79.302 233.223C74.8427 230.103 75.3887 222.583 79.7241 219.293C80.7519 218.514 81.4314 218.145 82.6789 217.816Z" fill="#BFBFBF"/>
<path fill-rule="evenodd" clip-rule="evenodd" d="M86.0544 221.617C88.398 221.791 89.3123 223.057 88.7981 225.416C86.5888 227.353 85.252 226.86 84.7881 223.939C84.8662 222.936 85.2883 222.162 86.0544 221.617Z" fill="#F6F6F5"/>
<path fill-rule="evenodd" clip-rule="evenodd" d="M66.2157 247.365C65.8936 247.689 65.4715 247.9 64.9494 247.998C66.298 248.075 67.5643 248.286 68.7484 248.631C66.1925 248.7 63.6598 248.489 61.1504 247.998C62.7945 247.464 64.4829 247.253 66.2157 247.365Z" fill="#70675E"/>
<path fill-rule="evenodd" clip-rule="evenodd" d="M119.824 245.678C120.999 244.798 123.279 247.699 122.146 248.632C121.052 249.534 118.693 247.85 119.191 246.522C119.336 246.136 119.494 245.925 119.824 245.678Z" fill="#FBFAFA"/>
<path fill-rule="evenodd" clip-rule="evenodd" d="M0.788086 268.073C0.788086 266.667 0.788086 265.259 0.788086 263.852C11.212 257.023 22.4682 252.028 34.5569 248.867C23.2224 255.167 11.9662 261.569 0.788086 268.073Z" fill="#BFBFBF"/>
<path opacity="0.01" fill-rule="evenodd" clip-rule="evenodd" d="M122.012 255C122.787 255.059 122.928 255.34 122.434 255.844C122.097 255.651 121.956 255.37 122.012 255Z" fill="#EFEFE9"/>
<path fill-rule="evenodd" clip-rule="evenodd" d="M11.3409 273.561C9.51181 273.561 7.68264 273.561 5.85352 273.561C12.5518 268.204 19.6573 263.42 27.1701 259.209C27.3811 259.28 27.5922 259.35 27.8032 259.421C22.1282 263.942 16.6408 268.655 11.3409 273.561Z" fill="#BFBFBF"/>
<path opacity="0.012" fill-rule="evenodd" clip-rule="evenodd" d="M121.09 256.23C121.111 257.112 120.689 257.675 119.823 257.918C119.487 257.726 119.346 257.444 119.401 257.074C119.896 256.718 120.459 256.436 121.09 256.23Z" fill="#C6C0BC"/>
<path fill-rule="evenodd" clip-rule="evenodd" d="M39.2013 262.562C37.935 262.562 36.6687 262.562 35.4023 262.562C36.5982 259.186 37.7941 255.809 38.9903 252.431C39.2012 255.805 39.2716 259.182 39.2013 262.562Z" fill="#BFBFBF"/>
<path fill-rule="evenodd" clip-rule="evenodd" d="M51.4422 262.562C50.4574 262.562 49.4722 262.562 48.4874 262.562C48.4026 260.159 48.3321 257.766 48.2764 255.386C49.5435 257.72 50.5988 260.112 51.4422 262.562Z" fill="#BFBFBF"/>
<path fill-rule="evenodd" clip-rule="evenodd" d="M45.5333 262.561C44.5485 262.561 43.5633 262.561 42.5785 262.561C42.4354 259.575 42.6465 256.62 43.2117 253.697C44.245 256.6 45.0192 259.555 45.5333 262.561Z" fill="#BFBFBF"/>
<path fill-rule="evenodd" clip-rule="evenodd" d="M58.6189 262.561C57.4931 262.561 56.3678 262.561 55.242 262.561C54.4396 260.791 53.947 258.962 53.7646 257.074C55.3138 258.974 56.9317 260.803 58.6189 262.561Z" fill="#BFBFBF"/>
<path opacity="0.357" fill-rule="evenodd" clip-rule="evenodd" d="M77.6123 262.562C77.0496 262.562 76.4865 262.562 75.9238 262.562C75.8685 262.192 76.0091 261.91 76.3459 261.718C76.8689 261.904 77.291 262.186 77.6123 262.562Z" fill="#B1AE9F"/>
<path fill-rule="evenodd" clip-rule="evenodd" d="M68.7485 261.295C69.6662 261.4 70.3698 261.822 70.8591 262.561C70.1554 262.561 69.4522 262.561 68.7485 262.561C68.5573 262.157 68.2762 261.805 67.9043 261.506C68.155 261.31 68.4366 261.24 68.7485 261.295Z" fill="#BFBFBF"/>
</g>
</g>
<path fill-rule="evenodd" clip-rule="evenodd" d="M235.533 236.088C235.161 236.257 234.97 236.613 235.004 237.075C235.03 237.443 235.165 237.683 235.441 237.854L235.668 237.995H244.004H252.339L252.535 237.883C252.887 237.681 253.044 237.352 253.011 236.887C252.985 236.537 252.804 236.257 252.505 236.106L252.296 236L244.009 236.001C236.071 236.002 235.715 236.006 235.533 236.088ZM243.632 240.064C243.529 240.108 242.675 240.924 241.339 242.257C239.106 244.482 238.986 244.623 238.986 245.013C238.986 245.363 239.257 245.754 239.634 245.949C239.791 246.03 240.218 246.018 240.401 245.927C240.487 245.884 241.101 245.307 241.766 244.645L242.975 243.441V248.21C242.975 251.255 242.992 253.071 243.023 253.232C243.113 253.709 243.506 254.025 244.008 254.025C244.526 254.025 244.912 253.703 244.994 253.201C245.021 253.033 245.04 251.029 245.04 248.181L245.04 243.441L246.249 244.645C246.914 245.307 247.528 245.884 247.614 245.927C247.797 246.018 248.224 246.03 248.382 245.949C248.758 245.754 249.029 245.363 249.029 245.013C249.029 244.623 248.909 244.482 246.676 242.256C245.219 240.803 244.492 240.111 244.373 240.062C244.154 239.972 243.846 239.972 243.632 240.064Z" fill="#BFBFBF"/>
<defs>
<filter id="filter0_d_517_952" x="-0.746094" y="145.441" width="131.638" height="114.587" filterUnits="userSpaceOnUse" color-interpolation-filters="sRGB">
<feFlood flood-opacity="0" result="BackgroundImageFix"/>
<feColorMatrix in="SourceAlpha" type="matrix" values="0 0 0 0 0 0 0 0 0 0 0 0 0 0 0 0 0 0 127 0" result="hardAlpha"/>
<feOffset dx="1.96323" dy="1.05712"/>
<feGaussianBlur stdDeviation="0.755087"/>
<feComposite in2="hardAlpha" operator="out"/>
<feColorMatrix type="matrix" values="0 0 0 0 0 0 0 0 0 0 0 0 0 0 0 0 0 0 0.25 0"/>
<feBlend mode="normal" in2="BackgroundImageFix" result="effect1_dropShadow_517_952"/>
<feBlend mode="normal" in="SourceGraphic" in2="effect1_dropShadow_517_952" result="shape"/>
</filter>
<clipPath id="clip0_517_952">
<rect x="1" y="135.742" width="150.848" height="138.03" rx="7" fill="white"/>
</clipPath>
</defs>
</svg>
