<svg width="14" height="19" viewBox="0 0 14 19" fill="none" xmlns="http://www.w3.org/2000/svg">
<path d="M0.688478 6.53279C0.688478 3.30322 3.29862 0.688478 6.51429 0.688478C9.72995 0.688478 12.3401 3.30322 12.3401 6.53279C12.3401 7.26793 11.9955 8.31923 11.3921 9.55431C10.8005 10.7652 10.005 12.065 9.1994 13.2678C8.3954 14.4683 7.5901 15.5593 6.98513 16.3508C6.80941 16.5808 6.6508 16.7852 6.51429 16.9593C6.37777 16.7852 6.21916 16.5808 6.04345 16.3508C5.43847 15.5593 4.63317 14.4683 3.82917 13.2678C3.02356 12.065 2.22804 10.7652 1.63646 9.55431C1.03309 8.31923 0.688478 7.26793 0.688478 6.53279Z" stroke="#2A1010" stroke-width="1.37696"/>
<path d="M8.73656 6.66658C8.73656 7.79142 7.77205 8.75705 6.5144 8.75705C5.25675 8.75705 4.29224 7.79142 4.29224 6.66658C4.29224 5.54174 5.25675 4.57611 6.5144 4.57611C7.77205 4.57611 8.73656 5.54174 8.73656 6.66658Z" stroke="#2A1010" stroke-width="1.37696"/>
</svg>
