<svg width="20" height="17" viewBox="0 0 20 17" fill="none" xmlns="http://www.w3.org/2000/svg">
<mask id="path-1-inside-1_2058_6546" fill="white">
<path fill-rule="evenodd" clip-rule="evenodd" d="M5.13123 0.0534034C4.54813 0.142777 4.1242 0.281137 3.56509 0.564539C1.82447 1.44679 0.708131 3.39459 0.711924 5.54278C0.713658 6.53275 0.935105 7.42205 1.41413 8.36286C2.0607 9.6327 3.03167 10.7622 4.95689 12.4837C6.52444 13.8855 9.3313 16.2675 9.51792 16.3544C9.7834 16.478 10.1349 16.478 10.4006 16.3546C10.6974 16.2166 14.9451 12.548 16.0757 11.453C16.6031 10.9422 17.2323 10.2509 17.6056 9.77174C18.4859 8.64207 19.0616 7.35222 19.1574 6.2948C19.1706 6.14961 19.1953 6.02212 19.2124 6.01157C19.2295 6.00103 19.2434 5.7648 19.2434 5.48664C19.2434 5.20782 19.2293 4.98963 19.2119 5.00036C19.1946 5.01109 19.169 4.90231 19.155 4.75864C19.0444 3.62203 18.4857 2.40938 17.6885 1.57558C16.9963 0.851518 16.2355 0.400603 15.3058 0.163477C13.8667 -0.203592 12.473 0.0502605 11.2783 0.897144C10.9586 1.12372 10.2955 1.76531 10.1055 2.03191C10.0382 2.12627 9.97241 2.20351 9.95926 2.20351C9.94611 2.20351 9.88033 2.12627 9.81306 2.03191C9.62301 1.76531 8.95993 1.12372 8.64026 0.897144C8.0874 0.505222 7.52319 0.249527 6.88862 0.10322C6.47917 0.00882483 5.58713 -0.0164628 5.13123 0.0534034ZM0.738042 5.78893C0.731178 5.933 0.725543 5.81513 0.725543 5.52703C0.725543 5.23893 0.731178 5.12105 0.738042 5.26512C0.74487 5.40919 0.74487 5.64487 0.738042 5.78893Z"/>
</mask>
<path fill-rule="evenodd" clip-rule="evenodd" d="M5.13123 0.0534034C4.54813 0.142777 4.1242 0.281137 3.56509 0.564539C1.82447 1.44679 0.708131 3.39459 0.711924 5.54278C0.713658 6.53275 0.935105 7.42205 1.41413 8.36286C2.0607 9.6327 3.03167 10.7622 4.95689 12.4837C6.52444 13.8855 9.3313 16.2675 9.51792 16.3544C9.7834 16.478 10.1349 16.478 10.4006 16.3546C10.6974 16.2166 14.9451 12.548 16.0757 11.453C16.6031 10.9422 17.2323 10.2509 17.6056 9.77174C18.4859 8.64207 19.0616 7.35222 19.1574 6.2948C19.1706 6.14961 19.1953 6.02212 19.2124 6.01157C19.2295 6.00103 19.2434 5.7648 19.2434 5.48664C19.2434 5.20782 19.2293 4.98963 19.2119 5.00036C19.1946 5.01109 19.169 4.90231 19.155 4.75864C19.0444 3.62203 18.4857 2.40938 17.6885 1.57558C16.9963 0.851518 16.2355 0.400603 15.3058 0.163477C13.8667 -0.203592 12.473 0.0502605 11.2783 0.897144C10.9586 1.12372 10.2955 1.76531 10.1055 2.03191C10.0382 2.12627 9.97241 2.20351 9.95926 2.20351C9.94611 2.20351 9.88033 2.12627 9.81306 2.03191C9.62301 1.76531 8.95993 1.12372 8.64026 0.897144C8.0874 0.505222 7.52319 0.249527 6.88862 0.10322C6.47917 0.00882483 5.58713 -0.0164628 5.13123 0.0534034ZM0.738042 5.78893C0.731178 5.933 0.725543 5.81513 0.725543 5.52703C0.725543 5.23893 0.731178 5.12105 0.738042 5.26512C0.74487 5.40919 0.74487 5.64487 0.738042 5.78893Z" fill="#2A1010"/>
<path d="M5.13123 0.0534034L4.97975 -0.935057L4.97973 -0.935053L5.13123 0.0534034ZM3.56509 0.564539L4.0172 1.45651L4.01721 1.4565L3.56509 0.564539ZM0.711924 5.54278L1.71192 5.54103L1.71192 5.54101L0.711924 5.54278ZM1.41413 8.36286L0.522987 8.81659L0.522993 8.8166L1.41413 8.36286ZM4.95689 12.4837L5.62348 11.7383L5.62348 11.7383L4.95689 12.4837ZM9.51792 16.3544L9.94004 15.4478L9.93997 15.4478L9.51792 16.3544ZM10.4006 16.3546L10.822 17.2614L10.8221 17.2614L10.4006 16.3546ZM16.0757 11.453L15.38 10.7347L15.38 10.7347L16.0757 11.453ZM17.6056 9.77174L18.3944 10.3864L18.3944 10.3864L17.6056 9.77174ZM19.1574 6.2948L20.1533 6.38506L20.1534 6.385L19.1574 6.2948ZM19.2124 6.01157L18.6871 5.16066L18.6863 5.16116L19.2124 6.01157ZM19.2119 5.00036L18.6865 4.14949L18.6857 4.14998L19.2119 5.00036ZM19.155 4.75864L20.1503 4.66179L20.1503 4.66178L19.155 4.75864ZM17.6885 1.57558L16.9657 2.2666L16.9657 2.26661L17.6885 1.57558ZM15.3058 0.163477L15.0586 1.13245L15.0586 1.13245L15.3058 0.163477ZM11.2783 0.897144L11.8565 1.713L11.8566 1.71297L11.2783 0.897144ZM10.1055 2.03191L9.29118 1.45143L9.29118 1.45144L10.1055 2.03191ZM9.81306 2.03191L10.6273 1.45144L10.6273 1.45143L9.81306 2.03191ZM8.64026 0.897144L8.06193 1.71295L8.062 1.713L8.64026 0.897144ZM6.88862 0.10322L7.11328 -0.871216L7.11327 -0.871219L6.88862 0.10322ZM0.738042 5.78893L1.73691 5.83652L1.73692 5.83627L0.738042 5.78893ZM0.738042 5.26512L1.73692 5.21778L1.73691 5.21753L0.738042 5.26512ZM4.97973 -0.935053C4.28557 -0.828656 3.76061 -0.655694 3.11298 -0.327419L4.01721 1.4565C4.4878 1.21797 4.8107 1.11421 5.28274 1.04186L4.97973 -0.935053ZM3.11299 -0.327427C0.995469 0.74586 -0.292451 3.06625 -0.288075 5.54454L1.71192 5.54101C1.70871 3.72293 2.65348 2.14772 4.0172 1.45651L3.11299 -0.327427ZM-0.288075 5.54453C-0.286047 6.702 -0.0224622 7.74531 0.522987 8.81659L2.30526 7.90913C1.89267 7.09878 1.71336 6.36351 1.71192 5.54103L-0.288075 5.54453ZM0.522993 8.8166C1.25416 10.2526 2.33532 11.481 4.29031 13.2292L5.62348 11.7383C3.72802 10.0433 2.86723 9.0128 2.30526 7.90911L0.522993 8.8166ZM4.2903 13.2292C5.08266 13.9377 6.18328 14.8897 7.10821 15.6746C7.57082 16.0672 7.99287 16.4209 8.31281 16.6833C8.47213 16.8139 8.61047 16.9255 8.71761 17.0091C8.77057 17.0504 8.82181 17.0895 8.86711 17.1223C8.88279 17.1336 8.98231 17.2081 9.09587 17.2609L9.93997 15.4478C10.0302 15.4898 10.0859 15.5355 10.0392 15.5017C10.0221 15.4894 9.9924 15.467 9.94769 15.4321C9.85949 15.3633 9.73567 15.2636 9.58112 15.1369C9.2733 14.8844 8.86067 14.5387 8.40229 14.1497C7.48526 13.3715 6.39866 12.4315 5.62348 11.7383L4.2903 13.2292ZM9.0958 17.2609C9.62895 17.5092 10.2891 17.509 10.822 17.2614L9.97922 15.4477C9.9885 15.4434 9.99078 15.4436 9.98503 15.4448C9.97945 15.446 9.97042 15.4471 9.95934 15.4471C9.94825 15.4471 9.93928 15.4459 9.9338 15.4448C9.92815 15.4436 9.93058 15.4434 9.94004 15.4478L9.0958 17.2609ZM10.8221 17.2614C10.944 17.2047 11.0558 17.1217 11.0893 17.0973C11.1518 17.0518 11.2245 16.996 11.3023 16.9347C11.4591 16.8111 11.6614 16.6458 11.8928 16.4534C12.357 16.0675 12.9563 15.5574 13.5791 15.0195C14.8168 13.9505 16.1825 12.7417 16.7713 12.1714L15.38 10.7347C14.8383 11.2593 13.5148 12.4323 12.2718 13.5059C11.6543 14.0392 11.0653 14.5405 10.6143 14.9155C10.3881 15.1035 10.2011 15.2561 10.0643 15.3638C9.99535 15.4182 9.94521 15.4564 9.91231 15.4803C9.85045 15.5253 9.89435 15.4871 9.97909 15.4477L10.8221 17.2614ZM16.7713 12.1714C17.3256 11.6347 17.9873 10.9089 18.3944 10.3864L16.8168 9.15709C16.4773 9.59288 15.8807 10.2498 15.38 10.7347L16.7713 12.1714ZM18.3944 10.3864C19.3526 9.15676 20.0351 7.6894 20.1533 6.38506L18.1615 6.20453C18.088 7.01504 17.6192 8.12738 16.8168 9.15709L18.3944 10.3864ZM20.1534 6.385C20.1576 6.33836 20.1629 6.30456 20.1651 6.29319C20.1668 6.28432 20.1637 6.30386 20.1527 6.33902C20.1479 6.35426 20.133 6.40084 20.1042 6.4597C20.0897 6.48932 20.0624 6.54146 20.0191 6.6013C19.982 6.65256 19.8929 6.76645 19.7385 6.86199L18.6863 5.16116C18.4195 5.32617 18.3135 5.56878 18.3071 5.58194C18.2737 5.65035 18.2539 5.70975 18.2442 5.7407C18.2234 5.80726 18.21 5.86973 18.2018 5.9122C18.184 6.00351 18.1704 6.10604 18.1615 6.2046L20.1534 6.385ZM19.7377 6.86249C20.0202 6.6881 20.1224 6.42904 20.1316 6.40809C20.1642 6.33359 20.1811 6.27051 20.1883 6.24159C20.2042 6.17872 20.212 6.1237 20.2157 6.09581C20.2241 6.0325 20.2292 5.96549 20.2326 5.90854C20.2397 5.7889 20.2434 5.63991 20.2434 5.48664H18.2434C18.2434 5.61153 18.2402 5.71974 18.2361 5.79038C18.2338 5.82858 18.2322 5.83999 18.2331 5.83263C18.2336 5.82943 18.2346 5.82165 18.2366 5.81052C18.2383 5.80047 18.2422 5.77998 18.2489 5.75321C18.2542 5.7323 18.269 5.67565 18.2995 5.6059C18.315 5.57052 18.3437 5.51036 18.3908 5.44211C18.4333 5.38051 18.5261 5.26002 18.6871 5.16066L19.7377 6.86249ZM20.2434 5.48664C20.2434 5.33363 20.2396 5.18652 20.2321 5.07019C20.2287 5.01768 20.2229 4.94443 20.2113 4.87286C20.2077 4.85037 20.1935 4.75971 20.1549 4.65657C20.1436 4.62621 20.0834 4.45778 19.9284 4.30007C19.841 4.21113 19.6699 4.0712 19.4086 4.01923C19.1222 3.96226 18.8669 4.03814 18.6865 4.14949L19.7373 5.85122C19.558 5.9619 19.3038 6.03756 19.0184 5.9808C18.7582 5.92904 18.5882 5.78976 18.5019 5.70191C18.349 5.54635 18.2909 5.38177 18.2816 5.3569C18.261 5.30199 18.2505 5.25823 18.2463 5.23975C18.2413 5.21759 18.2384 5.20078 18.237 5.19235C18.233 5.16738 18.234 5.1641 18.2363 5.19965C18.2402 5.25944 18.2434 5.36084 18.2434 5.48664H20.2434ZM18.6857 4.14998C18.8879 4.0249 19.1477 3.96587 19.4159 4.02272C19.6529 4.07295 19.8094 4.19507 19.8874 4.26789C20.0307 4.40162 20.0938 4.54265 20.1052 4.56744C20.128 4.61652 20.1404 4.65499 20.1452 4.67069C20.1511 4.68954 20.1543 4.70281 20.1555 4.70815C20.1588 4.72207 20.1546 4.70632 20.1503 4.66179L18.1597 4.85549C18.1693 4.95463 18.1849 5.06511 18.2088 5.16665C18.218 5.20578 18.2416 5.3023 18.2901 5.40719C18.3066 5.44292 18.3747 5.59181 18.5227 5.73C18.6031 5.80504 18.762 5.92855 19.0012 5.97926C19.2717 6.03659 19.5338 5.97716 19.7381 5.85074L18.6857 4.14998ZM20.1503 4.66178C20.0177 3.29973 19.3616 1.8785 18.4114 0.884541L16.9657 2.26661C17.6097 2.94026 18.071 3.94434 18.1597 4.85551L20.1503 4.66178ZM18.4114 0.884553C17.5957 0.0313844 16.6723 -0.519999 15.5529 -0.805501L15.0586 1.13245C15.7987 1.3212 16.3969 1.67165 16.9657 2.2666L18.4114 0.884553ZM15.5529 -0.8055C13.8342 -1.24389 12.138 -0.938001 10.7 0.0813178L11.8566 1.71297C12.808 1.03852 13.8991 0.836708 15.0586 1.13245L15.5529 -0.8055ZM10.7 0.0812921C10.4757 0.240276 10.1855 0.500913 9.9479 0.730854C9.71801 0.95329 9.44469 1.23609 9.29118 1.45143L10.9197 2.61239C10.9197 2.61248 10.9228 2.60814 10.9302 2.59884C10.9373 2.58979 10.947 2.57795 10.9595 2.56323C10.9848 2.53349 11.0174 2.49686 11.057 2.45418C11.1363 2.36865 11.2341 2.26933 11.3386 2.16818C11.5599 1.95403 11.7612 1.78059 11.8565 1.713L10.7 0.0812921ZM9.29118 1.45144C9.27008 1.48104 9.25455 1.50025 9.25085 1.5046C9.24688 1.50925 9.25978 1.49345 9.28522 1.46899C9.29574 1.45888 9.33044 1.42578 9.38218 1.38852C9.40765 1.37018 9.45815 1.33555 9.52789 1.30192C9.58103 1.27628 9.73999 1.20351 9.95926 1.20351V3.20351C10.1802 3.20351 10.3412 3.13013 10.3968 3.10331C10.469 3.0685 10.5223 3.03212 10.5509 3.01149C10.6091 2.96963 10.6516 2.92976 10.6712 2.91093C10.7147 2.86905 10.7508 2.82804 10.7733 2.80159C10.8226 2.74372 10.8736 2.67714 10.9197 2.61238L9.29118 1.45144ZM9.95926 1.20351C10.1785 1.20351 10.3375 1.27628 10.3906 1.30192C10.4604 1.33555 10.5109 1.37017 10.5363 1.38852C10.5881 1.42578 10.6228 1.45888 10.6333 1.46899C10.6587 1.49344 10.6716 1.50925 10.6677 1.5046C10.664 1.50025 10.6484 1.48104 10.6273 1.45144L8.99878 2.61238C9.04495 2.67714 9.09594 2.74373 9.14524 2.80159C9.16777 2.82804 9.20379 2.86905 9.24736 2.91094C9.26695 2.92976 9.30947 2.96963 9.36759 3.01149C9.39625 3.03213 9.44957 3.0685 9.52175 3.10331C9.57734 3.13013 9.73834 3.20351 9.95926 3.20351V1.20351ZM10.6273 1.45143C10.4738 1.23609 10.2005 0.95329 9.97062 0.730854C9.73298 0.500913 9.44282 0.240276 9.21852 0.0812921L8.062 1.713C8.15736 1.78059 8.35858 1.95403 8.57991 2.16818C8.68444 2.26933 8.78218 2.36865 8.86155 2.45418C8.90115 2.49686 8.93375 2.53349 8.959 2.56323C8.97151 2.57795 8.9812 2.58979 8.98836 2.59884C8.99573 2.60814 8.99885 2.61248 8.99878 2.61239L10.6273 1.45143ZM9.21858 0.0813379C8.56368 -0.382922 7.88008 -0.694424 7.11328 -0.871216L6.66395 1.07766C7.1663 1.19348 7.61111 1.39337 8.06193 1.71295L9.21858 0.0813379ZM7.11327 -0.871219C6.81115 -0.94087 6.40732 -0.972917 6.05568 -0.982885C5.69919 -0.99299 5.29384 -0.98319 4.97975 -0.935057L5.28271 1.04186C5.42453 1.02013 5.69314 1.00764 5.99901 1.01631C6.30972 1.02512 6.55663 1.05291 6.66396 1.07766L7.11327 -0.871219ZM-0.274457 5.52703C-0.274457 5.66899 -0.273206 5.79312 -0.269643 5.86774C-0.269071 5.87973 -0.266992 5.9268 -0.259968 5.97891C-0.257927 5.99406 -0.253561 6.02434 -0.2454 6.06171C-0.242695 6.0741 -0.219877 6.18928 -0.151474 6.31834C-0.125686 6.367 -0.0179784 6.56928 0.225598 6.71247C0.367849 6.79609 0.55971 6.86054 0.78346 6.84912C1.00326 6.83791 1.17768 6.75742 1.29678 6.67605C1.50368 6.53469 1.59703 6.35592 1.62071 6.31026C1.65702 6.24021 1.67712 6.18088 1.68636 6.15175C1.71717 6.05466 1.72616 5.97058 1.72633 5.96928C1.72943 5.94495 1.73125 5.92413 1.73226 5.91168C1.73438 5.88554 1.73584 5.85899 1.73691 5.83652L-0.260825 5.74135C-0.261471 5.7549 -0.261692 5.75618 -0.261194 5.75004C-0.260996 5.74759 -0.259966 5.73482 -0.257648 5.71662C-0.256489 5.70752 -0.254194 5.69056 -0.250314 5.66908C-0.247512 5.65357 -0.238768 5.60609 -0.219974 5.54686C-0.210916 5.51831 -0.191008 5.45946 -0.154875 5.38976C-0.131386 5.34445 -0.0382214 5.16593 0.168502 5.02469C0.287506 4.94338 0.461841 4.86293 0.681549 4.85172C0.905209 4.84031 1.09698 4.90474 1.23914 4.9883C1.48254 5.13138 1.59007 5.33344 1.61568 5.38177C1.68373 5.51016 1.7062 5.62422 1.70856 5.63503C1.71637 5.67083 1.7204 5.69909 1.72211 5.71177C1.72573 5.73859 1.72715 5.75828 1.72744 5.7623C1.72771 5.76598 1.72787 5.76866 1.72796 5.77009C1.728 5.77086 1.72803 5.77143 1.72805 5.77178C1.72807 5.77214 1.72808 5.77233 1.72808 5.77235C1.72808 5.77235 1.72806 5.77183 1.72801 5.77072C1.72797 5.76963 1.72791 5.76811 1.72785 5.76613C1.72771 5.76213 1.72755 5.75681 1.72739 5.75005C1.72706 5.73641 1.72673 5.71876 1.72645 5.69686C1.72588 5.65302 1.72554 5.59612 1.72554 5.52703H-0.274457ZM1.73692 5.83627C1.74524 5.66066 1.74524 5.39339 1.73692 5.21778L-0.260837 5.31246C-0.255504 5.42498 -0.255504 5.62907 -0.260837 5.7416L1.73692 5.83627ZM1.73691 5.21753C1.73584 5.19507 1.73438 5.16851 1.73226 5.14237C1.73125 5.12992 1.72943 5.1091 1.72633 5.08477C1.72616 5.08348 1.71717 4.99939 1.68636 4.9023C1.67711 4.87316 1.65702 4.81384 1.6207 4.74378C1.59702 4.69811 1.50367 4.51934 1.29674 4.37798C1.17763 4.2966 1.0032 4.21613 0.783393 4.20493C0.559641 4.19353 0.36779 4.25799 0.225553 4.34161C-0.0179988 4.4848 -0.125695 4.68707 -0.151482 4.73572C-0.219879 4.86478 -0.242696 4.97996 -0.245401 4.99235C-0.253562 5.02972 -0.257927 5.06 -0.259968 5.07514C-0.266992 5.12726 -0.269071 5.17433 -0.269643 5.18631C-0.273206 5.26093 -0.274457 5.38506 -0.274457 5.52703H1.72554C1.72554 5.45793 1.72588 5.40103 1.72645 5.35719C1.72673 5.33529 1.72706 5.31764 1.72739 5.30401C1.72755 5.29724 1.72771 5.29192 1.72785 5.28792C1.72791 5.28594 1.72797 5.28442 1.72801 5.28333C1.72806 5.28222 1.72808 5.2817 1.72808 5.28171C1.72808 5.28172 1.72807 5.28191 1.72805 5.28227C1.72803 5.28262 1.728 5.28319 1.72796 5.28396C1.72787 5.28539 1.72771 5.28807 1.72744 5.29175C1.72715 5.29577 1.72573 5.31546 1.72211 5.34229C1.7204 5.35496 1.71637 5.38322 1.70856 5.41901C1.7062 5.42983 1.68373 5.54388 1.61569 5.67227C1.59008 5.72059 1.48256 5.92264 1.23919 6.06572C1.09704 6.14929 0.905277 6.21373 0.681616 6.20234C0.461903 6.19114 0.287557 6.1107 0.168539 6.02939C-0.0382048 5.88814 -0.131378 5.70961 -0.154869 5.6643C-0.191005 5.5946 -0.210913 5.53575 -0.219973 5.5072C-0.238768 5.44796 -0.247512 5.40049 -0.250314 5.38498C-0.254194 5.36349 -0.256489 5.34653 -0.257648 5.33743C-0.259966 5.31923 -0.260996 5.30646 -0.261194 5.30401C-0.261692 5.29787 -0.261471 5.29915 -0.260825 5.31271L1.73691 5.21753Z" fill="#2A1010" mask="url(#path-1-inside-1_2058_6546)"/>
</svg>
