<svg width="25" height="25" viewBox="0 0 25 25" fill="none" xmlns="http://www.w3.org/2000/svg">
<mask id="mask0_517_964" style="mask-type:alpha" maskUnits="userSpaceOnUse" x="0" y="0" width="25" height="25">
<rect x="0.910645" y="0.145752" width="24" height="24" fill="#D9D9D9"/>
</mask>
<g mask="url(#mask0_517_964)">
<path d="M12.9106 22.1458C11.544 22.1458 10.2523 21.8833 9.03564 21.3583C7.81898 20.8333 6.75648 20.1166 5.84814 19.2083C4.93981 18.2999 4.22314 17.2374 3.69814 16.0208C3.17314 14.8041 2.91064 13.5124 2.91064 12.1458C2.91064 10.7624 3.17314 9.46659 3.69814 8.25825C4.22314 7.04992 4.93981 5.99159 5.84814 5.08325C6.75648 4.17492 7.81898 3.45825 9.03564 2.93325C10.2523 2.40825 11.544 2.14575 12.9106 2.14575C13.194 2.14575 13.4315 2.24159 13.6231 2.43325C13.8148 2.62492 13.9106 2.86242 13.9106 3.14575C13.9106 3.42909 13.8148 3.66659 13.6231 3.85825C13.4315 4.04992 13.194 4.14575 12.9106 4.14575C10.694 4.14575 8.80648 4.92492 7.24814 6.48325C5.68981 8.04159 4.91064 9.92909 4.91064 12.1458C4.91064 14.3624 5.68981 16.2499 7.24814 17.8083C8.80648 19.3666 10.694 20.1458 12.9106 20.1458C15.1273 20.1458 17.0148 19.3666 18.5731 17.8083C20.1315 16.2499 20.9106 14.3624 20.9106 12.1458C20.9106 11.8624 21.0065 11.6249 21.1981 11.4333C21.3898 11.2416 21.6273 11.1458 21.9106 11.1458C22.194 11.1458 22.4315 11.2416 22.6231 11.4333C22.8148 11.6249 22.9106 11.8624 22.9106 12.1458C22.9106 13.5124 22.6481 14.8041 22.1231 16.0208C21.5981 17.2374 20.8815 18.2999 19.9731 19.2083C19.0648 20.1166 18.0065 20.8333 16.7981 21.3583C15.5898 21.8833 14.294 22.1458 12.9106 22.1458Z" fill="white"/>
</g>
</svg>
