<svg width="18" height="21" viewBox="0 0 18 21" fill="none" xmlns="http://www.w3.org/2000/svg">
<path fill-rule="evenodd" clip-rule="evenodd" d="M8.41253 0.869921C7.34969 1.01472 6.28527 1.42069 5.44444 2.00191C5.23422 2.14722 4.84406 2.47958 4.57738 2.74051C3.65504 3.64297 3.08121 4.6782 2.78395 5.97601C2.69608 6.35973 2.69302 6.44998 2.67085 9.28937L2.64812 12.2083L1.9904 13.2875C1.62864 13.881 1.30636 14.4284 1.27421 14.5039C0.95821 15.2453 1.32395 16.1262 2.09477 16.4803L2.32624 16.5867L5.41342 16.6261L5.48762 16.9126C5.57211 17.239 5.81646 17.772 6.01031 18.0529C7.09291 19.6219 9.1636 20.1783 10.8987 19.3664C11.898 18.8988 12.684 17.9669 12.9604 16.9219L13.0387 16.6261L14.5828 16.6052C16.3038 16.582 16.3089 16.5813 16.6894 16.2991C16.9398 16.1134 17.1592 15.8096 17.2523 15.5197C17.3448 15.2313 17.3224 14.7709 17.2029 14.5077C17.1566 14.4056 16.8231 13.8465 16.4618 13.2652L15.8049 12.2083L15.7822 9.28937C15.7602 6.47151 15.7564 6.35724 15.6713 5.98875C15.4784 5.15327 15.1756 4.42824 14.7558 3.79676C13.7584 2.29668 12.266 1.29841 10.4918 0.944511C10.0293 0.852289 8.8521 0.810044 8.41253 0.869921ZM8.623 2.15752C7.25131 2.30137 5.86985 3.07469 5.01964 4.17461C4.70613 4.58022 4.27836 5.41183 4.15496 5.85566C3.96275 6.54685 3.95607 6.67367 3.95591 9.63578C3.95579 11.9794 3.94642 12.4496 3.89769 12.564C3.86575 12.639 3.52174 13.22 3.13323 13.8551C2.74468 14.4903 2.42682 15.0484 2.42682 15.0953C2.42682 15.1423 2.47454 15.2175 2.53284 15.2624L2.63886 15.3441H15.8287L15.93 15.2449C16.0016 15.1747 16.0235 15.1217 16.0048 15.0639C15.9902 15.0189 15.6496 14.4468 15.2478 13.7924L14.5174 12.6027L14.4944 9.60493C14.4726 6.75891 14.4672 6.58914 14.3881 6.25212C14.1441 5.21196 13.6725 4.35984 12.9477 3.64928C11.9443 2.66549 10.5794 2.11665 9.18629 2.13669C8.95394 2.14004 8.70046 2.14943 8.623 2.15752ZM6.7722 16.6765C6.7722 16.7985 7.04684 17.3143 7.24037 17.5558C7.45969 17.8295 7.74508 18.0542 8.07983 18.2169C8.49642 18.4193 8.75819 18.4773 9.24664 18.4754C9.62123 18.4739 9.73868 18.457 10.0111 18.3654C10.7241 18.1256 11.216 17.6976 11.5399 17.035C11.774 16.5562 12.0447 16.6064 9.22653 16.6064C6.90107 16.6064 6.7722 16.61 6.7722 16.6765Z" fill="#2A1010"/>
<path d="M8.41253 0.869921L8.36529 0.523124L8.36529 0.523125L8.41253 0.869921ZM5.44444 2.00191L5.64346 2.28982L5.64346 2.28982L5.44444 2.00191ZM4.57738 2.74051L4.82216 2.99068L4.82216 2.99068L4.57738 2.74051ZM2.78395 5.97601L2.44278 5.89787L2.44278 5.89788L2.78395 5.97601ZM2.67085 9.28937L2.32086 9.28664L2.32086 9.28665L2.67085 9.28937ZM2.64812 12.2083L2.94699 12.3904L2.99735 12.3078L2.99811 12.211L2.64812 12.2083ZM1.9904 13.2875L2.28926 13.4697L2.28927 13.4696L1.9904 13.2875ZM1.27421 14.5039L1.59619 14.6411L1.59624 14.641L1.27421 14.5039ZM2.09477 16.4803L1.94865 16.7984L1.94865 16.7984L2.09477 16.4803ZM2.32624 16.5867L2.18012 16.9047L2.24756 16.9357L2.32177 16.9366L2.32624 16.5867ZM5.41342 16.6261L5.75225 16.5384L5.68523 16.2795L5.4179 16.2761L5.41342 16.6261ZM5.48762 16.9126L5.82644 16.8249L5.82644 16.8249L5.48762 16.9126ZM6.01031 18.0529L6.29838 17.8542L6.29838 17.8542L6.01031 18.0529ZM10.8987 19.3664L10.7504 19.0494L10.7504 19.0494L10.8987 19.3664ZM12.9604 16.9219L13.2988 17.0115L13.2988 17.0114L12.9604 16.9219ZM13.0387 16.6261L13.0339 16.2761L12.7683 16.2797L12.7003 16.5366L13.0387 16.6261ZM14.5828 16.6052L14.578 16.2553L14.578 16.2553L14.5828 16.6052ZM16.6894 16.2991L16.481 16.018L16.481 16.018L16.6894 16.2991ZM17.2523 15.5197L17.5855 15.6266L17.5855 15.6266L17.2523 15.5197ZM17.2029 14.5077L17.5217 14.3631L17.5216 14.363L17.2029 14.5077ZM16.4618 13.2652L16.7591 13.0805L16.7591 13.0805L16.4618 13.2652ZM15.8049 12.2083L15.4549 12.211L15.4557 12.3094L15.5077 12.393L15.8049 12.2083ZM15.7822 9.28937L16.1322 9.28665L16.1322 9.28664L15.7822 9.28937ZM15.6713 5.98875L16.0124 5.91003L16.0123 5.91002L15.6713 5.98875ZM14.7558 3.79676L15.0472 3.60299L15.0472 3.60298L14.7558 3.79676ZM10.4918 0.944511L10.5602 0.601272L10.5602 0.60127L10.4918 0.944511ZM8.623 2.15752L8.58666 1.80941L8.5865 1.80943L8.623 2.15752ZM5.01964 4.17461L4.74273 3.96056L4.74272 3.96056L5.01964 4.17461ZM4.15496 5.85566L4.49216 5.94943L4.49216 5.94942L4.15496 5.85566ZM3.95591 9.63578L3.60591 9.63576L3.60591 9.63576L3.95591 9.63578ZM3.89769 12.564L4.21966 12.7013L4.2197 12.7012L3.89769 12.564ZM3.13323 13.8551L3.4318 14.0378L3.43181 14.0378L3.13323 13.8551ZM2.53284 15.2624L2.7466 14.9852L2.74648 14.9851L2.53284 15.2624ZM2.63886 15.3441L2.42511 15.6213L2.51957 15.6941H2.63886V15.3441ZM15.8287 15.3441V15.6941H15.9717L16.0737 15.5941L15.8287 15.3441ZM15.93 15.2449L15.685 14.9949L15.685 14.9949L15.93 15.2449ZM16.0048 15.0639L16.3378 14.9562L16.3378 14.956L16.0048 15.0639ZM15.2478 13.7924L14.9496 13.9756L14.9496 13.9756L15.2478 13.7924ZM14.5174 12.6027L14.1674 12.6054L14.1682 12.7028L14.2192 12.7859L14.5174 12.6027ZM14.4944 9.60493L14.1444 9.60762L14.1444 9.60762L14.4944 9.60493ZM14.3881 6.25212L14.7289 6.17219L14.7289 6.17218L14.3881 6.25212ZM12.9477 3.64928L12.7027 3.8992L12.7027 3.89921L12.9477 3.64928ZM9.18629 2.13669L9.18126 1.78673L9.18124 1.78673L9.18629 2.13669ZM7.24037 17.5558L7.5135 17.3369L7.51348 17.3369L7.24037 17.5558ZM8.07983 18.2169L8.2328 17.9021L8.23278 17.9021L8.07983 18.2169ZM9.24664 18.4754L9.24803 18.8254L9.24804 18.8254L9.24664 18.4754ZM10.0111 18.3654L10.1226 18.6971L10.1227 18.6971L10.0111 18.3654ZM11.5399 17.035L11.2254 16.8813L11.2254 16.8813L11.5399 17.035ZM8.36529 0.523125C7.2507 0.674976 6.13376 1.09994 5.24543 1.714L5.64346 2.28982C6.43679 1.74144 7.44868 1.35447 8.45978 1.21672L8.36529 0.523125ZM5.24543 1.71399C5.01335 1.87441 4.60762 2.22126 4.33261 2.49034L4.82216 2.99068C5.0805 2.73791 5.45508 2.42003 5.64346 2.28982L5.24543 1.71399ZM4.33261 2.49034C3.36072 3.44127 2.75452 4.53685 2.44278 5.89787L3.12512 6.05415C3.40789 4.81954 3.94935 3.84467 4.82216 2.99068L4.33261 2.49034ZM2.44278 5.89788C2.34388 6.32976 2.34281 6.47506 2.32086 9.28664L3.02084 9.2921C3.04323 6.42489 3.04827 6.38969 3.12512 6.05414L2.44278 5.89788ZM2.32086 9.28665L2.29813 12.2056L2.99811 12.211L3.02084 9.2921L2.32086 9.28665ZM2.34925 12.0261L1.69153 13.1053L2.28927 13.4696L2.94699 12.3904L2.34925 12.0261ZM1.69153 13.1053C1.50992 13.4033 1.33797 13.6901 1.2071 13.9124C1.14174 14.0234 1.08607 14.1192 1.04437 14.1928C1.00816 14.2566 0.969874 14.3253 0.952193 14.3668L1.59624 14.641C1.59463 14.6448 1.60868 14.6167 1.65325 14.5381C1.69232 14.4692 1.74586 14.377 1.81031 14.2675C1.93905 14.0489 2.10912 13.7652 2.28926 13.4697L1.69153 13.1053ZM0.952241 14.3667C0.555651 15.2971 1.02054 16.372 1.94865 16.7984L2.24088 16.1623C1.62735 15.8804 1.36077 15.1935 1.59619 14.6411L0.952241 14.3667ZM1.94865 16.7984L2.18012 16.9047L2.47235 16.2686L2.24088 16.1623L1.94865 16.7984ZM5.0746 16.7138L5.14879 17.0004L5.82644 16.8249L5.75225 16.5384L5.0746 16.7138ZM5.14879 17.0004C5.2437 17.3669 5.50539 17.9375 5.72224 18.2517L6.29838 17.8542C6.12752 17.6066 5.90052 17.111 5.82644 16.8249L5.14879 17.0004ZM5.72223 18.2517C6.90264 19.9624 9.15827 20.5672 11.047 19.6834L10.7504 19.0494C9.16893 19.7893 7.28318 19.2814 6.29838 17.8542L5.72223 18.2517ZM11.047 19.6834C12.138 19.1729 12.9952 18.159 13.2988 17.0115L12.6221 16.8324C12.3727 17.7748 11.658 18.6247 10.7504 19.0494L11.047 19.6834ZM13.2988 17.0114L13.377 16.7156L12.7003 16.5366L12.622 16.8324L13.2988 17.0114ZM13.0434 16.9761L14.5875 16.9552L14.578 16.2553L13.0339 16.2761L13.0434 16.9761ZM14.5875 16.9552C15.4328 16.9438 15.896 16.9382 16.1891 16.8956C16.3475 16.8726 16.4752 16.8368 16.5972 16.7763C16.7112 16.7198 16.8083 16.6467 16.8979 16.5802L16.481 16.018C16.3803 16.0926 16.3341 16.1254 16.2863 16.1491C16.2466 16.1688 16.194 16.1876 16.0885 16.2029C15.8536 16.237 15.4537 16.2434 14.578 16.2553L14.5875 16.9552ZM16.8979 16.5803C17.2056 16.3521 17.4696 15.988 17.5855 15.6266L16.919 15.4128C16.8489 15.6312 16.6741 15.8748 16.481 16.018L16.8979 16.5803ZM17.5855 15.6266C17.6484 15.4306 17.667 15.1988 17.6567 14.9872C17.6464 14.7767 17.6057 14.5483 17.5217 14.3631L16.8842 14.6524C16.9196 14.7303 16.9498 14.8637 16.9575 15.0213C16.9651 15.1778 16.9487 15.3204 16.919 15.4128L17.5855 15.6266ZM17.5216 14.363C17.4882 14.2895 17.3799 14.1029 17.2511 13.8869C17.1155 13.6596 16.9407 13.3726 16.7591 13.0805L16.1645 13.45C16.3442 13.7391 16.5168 14.0224 16.6499 14.2455C16.7165 14.3571 16.7726 14.4528 16.8146 14.5262C16.8357 14.5629 16.8526 14.593 16.8652 14.6162C16.8715 14.6278 16.8763 14.6369 16.8799 14.6438C16.8837 14.6512 16.8848 14.6536 16.8843 14.6524L17.5216 14.363ZM16.7591 13.0805L16.1022 12.0235L15.5077 12.393L16.1645 13.45L16.7591 13.0805ZM16.1549 12.2056L16.1322 9.28665L15.4322 9.2921L15.4549 12.211L16.1549 12.2056ZM16.1322 9.28664C16.1104 6.49743 16.1086 6.32714 16.0124 5.91003L15.3303 6.06747C15.4041 6.38735 15.41 6.4456 15.4322 9.2921L16.1322 9.28664ZM16.0123 5.91002C15.8112 5.03883 15.4932 4.27379 15.0472 3.60299L14.4643 3.99053C14.858 4.58268 15.1456 5.26771 15.3303 6.06748L16.0123 5.91002ZM15.0472 3.60298C13.9981 2.02504 12.4253 0.973281 10.5602 0.601272L10.4233 1.28775C12.1068 1.62354 13.5187 2.56832 14.4643 3.99055L15.0472 3.60298ZM10.5602 0.60127C10.2997 0.549316 9.86606 0.515112 9.45612 0.500404C9.04746 0.485742 8.61724 0.488805 8.36529 0.523124L8.45977 1.21672C8.6474 1.19116 9.02558 1.18541 9.43103 1.19995C9.8352 1.21445 10.2214 1.24748 10.4233 1.28775L10.5602 0.60127ZM8.5865 1.80943C7.11887 1.96334 5.65087 2.78568 4.74273 3.96056L5.29656 4.38865C6.08883 3.36369 7.38376 2.6394 8.65951 2.50561L8.5865 1.80943ZM4.74272 3.96056C4.56754 4.18721 4.37103 4.51748 4.20477 4.84071C4.03935 5.16229 3.88893 5.50589 3.81775 5.76191L4.49216 5.94942C4.54438 5.76161 4.66955 5.46748 4.82725 5.1609C4.9841 4.85595 5.15824 4.56761 5.29657 4.38865L4.74272 3.96056ZM3.81775 5.7619C3.60978 6.50979 3.60607 6.69292 3.60591 9.63576L4.30591 9.63579C4.30607 6.65442 4.31573 6.58392 4.49216 5.94943L3.81775 5.7619ZM3.60591 9.63576C3.60585 10.8086 3.60346 11.5083 3.5951 11.9289C3.5909 12.14 3.5853 12.2741 3.57844 12.3599C3.57054 12.4589 3.56294 12.4568 3.57569 12.4269L4.2197 12.7012C4.25681 12.6141 4.26865 12.5104 4.27622 12.4157C4.28483 12.3079 4.29071 12.1565 4.29496 11.9428C4.30349 11.5139 4.30585 10.8066 4.30591 9.63579L3.60591 9.63576ZM3.57572 12.4268C3.5777 12.4222 3.56303 12.4513 3.51551 12.5344C3.47397 12.6071 3.41685 12.7049 3.34801 12.8212C3.21046 13.0535 3.02822 13.3561 2.83465 13.6725L3.43181 14.0378C3.62675 13.7191 3.81076 13.4136 3.95034 13.1778C4.02005 13.0601 4.07921 12.9589 4.12329 12.8817C4.1614 12.815 4.20172 12.7434 4.21966 12.7013L3.57572 12.4268ZM2.83466 13.6725C2.63899 13.9924 2.46045 14.2939 2.3302 14.5226C2.26531 14.6365 2.21098 14.7349 2.17217 14.8093C2.15305 14.846 2.13558 14.881 2.12209 14.9109C2.11554 14.9255 2.10763 14.9439 2.10068 14.9635C2.09923 14.9676 2.07682 15.0249 2.07682 15.0953H2.77682C2.77682 15.1361 2.7693 15.1663 2.76729 15.1744C2.76427 15.1864 2.76134 15.1949 2.7603 15.1978C2.75819 15.2037 2.7575 15.2047 2.76039 15.1983C2.76581 15.1863 2.7762 15.1649 2.79296 15.1328C2.82588 15.0696 2.8753 14.9799 2.93845 14.8691C3.06426 14.6482 3.23892 14.3531 3.4318 14.0378L2.83466 13.6725ZM2.07682 15.0953C2.07682 15.2174 2.13007 15.3161 2.16246 15.3672C2.20153 15.4287 2.2549 15.4901 2.3192 15.5396L2.74648 14.9851C2.75249 14.9898 2.75285 14.9911 2.75348 14.9921C2.75426 14.9933 2.75828 14.9997 2.76289 15.012C2.76662 15.0219 2.77682 15.0516 2.77682 15.0953H2.07682ZM2.31909 15.5395L2.42511 15.6213L2.85262 15.067L2.7466 14.9852L2.31909 15.5395ZM16.0737 15.5941L16.175 15.4948L15.685 14.9949L15.5837 15.0942L16.0737 15.5941ZM16.175 15.4948C16.2251 15.4457 16.2865 15.3759 16.3247 15.2834C16.3688 15.1767 16.3725 15.0634 16.3378 14.9562L15.6718 15.1716C15.6652 15.1513 15.6601 15.1245 15.6613 15.0934C15.6625 15.0622 15.6696 15.0358 15.6778 15.016C15.6919 14.982 15.7065 14.9738 15.685 14.9949L16.175 15.4948ZM16.3378 14.956C16.3237 14.9126 16.2974 14.8659 16.2923 14.8565C16.2788 14.8316 16.2611 14.8002 16.2405 14.7641C16.1988 14.6916 16.1412 14.5935 16.0722 14.4776C15.9341 14.2455 15.7476 13.9375 15.5461 13.6093L14.9496 13.9756C15.1498 14.3017 15.3346 14.6069 15.4708 14.8357C15.539 14.9503 15.5944 15.0446 15.6333 15.1124C15.6528 15.1465 15.6673 15.1723 15.6768 15.1898C15.6947 15.223 15.6822 15.2039 15.6718 15.1717L16.3378 14.956ZM15.5461 13.6093L14.8157 12.4196L14.2192 12.7859L14.9496 13.9756L15.5461 13.6093ZM14.8674 12.6L14.8444 9.60224L14.1444 9.60762L14.1674 12.6054L14.8674 12.6ZM14.8444 9.60224C14.8228 6.78718 14.8196 6.55883 14.7289 6.17219L14.0474 6.33206C14.1148 6.61945 14.1223 6.73063 14.1444 9.60762L14.8444 9.60224ZM14.7289 6.17218C14.4705 5.071 13.9675 4.15885 13.1928 3.39935L12.7027 3.89921C13.3776 4.56082 13.8176 5.35293 14.0474 6.33206L14.7289 6.17218ZM13.1928 3.39936C12.1233 2.35083 10.6686 1.76533 9.18126 1.78673L9.19133 2.48665C10.4902 2.46797 11.7653 2.98015 12.7027 3.8992L13.1928 3.39936ZM9.18124 1.78673C8.9514 1.79004 8.68228 1.79943 8.58666 1.80941L8.65935 2.50563C8.71863 2.49944 8.95647 2.49004 9.19134 2.48665L9.18124 1.78673ZM6.4222 16.6765C6.4222 16.7445 6.43887 16.8058 6.44918 16.8401C6.46164 16.8816 6.47782 16.9245 6.4949 16.9656C6.52925 17.0484 6.57498 17.1423 6.62478 17.2358C6.72269 17.4197 6.85141 17.6301 6.96726 17.7747L7.51348 17.3369C7.4358 17.24 7.33044 17.0717 7.24264 16.9068C7.19959 16.826 7.16456 16.753 7.14137 16.6972C7.12968 16.669 7.12289 16.6497 7.11957 16.6387C7.11411 16.6205 7.1222 16.639 7.1222 16.6765H6.4222ZM6.96724 17.7746C7.22098 18.0913 7.54836 18.3478 7.92689 18.5317L8.23278 17.9021C7.94179 17.7607 7.69841 17.5677 7.5135 17.3369L6.96724 17.7746ZM7.92686 18.5317C8.14958 18.6399 8.34613 18.717 8.56059 18.7645C8.77419 18.8118 8.99021 18.8264 9.24803 18.8254L9.24526 18.1254C9.01463 18.1263 8.85554 18.1128 8.71199 18.081C8.56931 18.0494 8.42667 17.9963 8.2328 17.9021L7.92686 18.5317ZM9.24804 18.8254C9.43711 18.8246 9.58095 18.8202 9.71702 18.8006C9.8576 18.7804 9.97794 18.7458 10.1226 18.6971L9.89957 18.0336C9.77184 18.0766 9.69725 18.0962 9.61735 18.1077C9.53295 18.1199 9.43077 18.1246 9.24524 18.1254L9.24804 18.8254ZM10.1227 18.6971C10.9224 18.4282 11.4884 17.9373 11.8543 17.1887L11.2254 16.8813C10.9436 17.4579 10.5258 17.823 9.89956 18.0336L10.1227 18.6971ZM11.8543 17.1887C11.8789 17.1384 11.9013 17.1002 11.9304 17.047C11.9511 17.0091 11.9951 16.9301 12.0147 16.8438C12.026 16.7945 12.0343 16.7236 12.0153 16.6432C11.9951 16.5572 11.9495 16.4854 11.8907 16.4313C11.7909 16.3396 11.6651 16.3106 11.5915 16.297C11.4275 16.2666 11.171 16.2587 10.8125 16.256C10.4436 16.2532 9.92757 16.2564 9.22653 16.2564V16.9564C9.93455 16.9564 10.4415 16.9532 10.8072 16.956C11.1831 16.9589 11.3728 16.9684 11.464 16.9853C11.5182 16.9953 11.4723 16.9975 11.417 16.9467C11.3804 16.913 11.3482 16.864 11.334 16.8037C11.3211 16.7489 11.3281 16.7063 11.3322 16.6883C11.3376 16.6646 11.344 16.6603 11.3162 16.7113C11.2966 16.747 11.2594 16.8119 11.2254 16.8813L11.8543 17.1887ZM9.22653 16.2564C8.06693 16.2564 7.44661 16.2573 7.11732 16.2667C6.96049 16.2711 6.84217 16.2779 6.75998 16.2943C6.72498 16.3013 6.6404 16.3196 6.56346 16.3813C6.51758 16.418 6.4766 16.4682 6.45049 16.5317C6.4258 16.5918 6.4222 16.6451 6.4222 16.6765H7.1222C7.1222 16.6996 7.1196 16.7451 7.09794 16.7978C7.07485 16.854 7.03891 16.8973 7.0011 16.9276C6.96694 16.9549 6.93601 16.968 6.92139 16.9734C6.91327 16.9764 6.90701 16.9783 6.90334 16.9793C6.89961 16.9803 6.89746 16.9807 6.89736 16.9807C6.89721 16.9807 6.89842 16.9805 6.90129 16.9801C6.90413 16.9796 6.90818 16.9791 6.91366 16.9784C6.92476 16.9771 6.94002 16.9757 6.96055 16.9742C7.00192 16.9713 7.05893 16.9686 7.13731 16.9664C7.45382 16.9573 8.06067 16.9564 9.22653 16.9564V16.2564ZM2.32177 16.9366L5.40895 16.9761L5.4179 16.2761L2.33071 16.2367L2.32177 16.9366ZM2.63886 15.6941H15.8287V14.9941H2.63886V15.6941Z" fill="#2A1010"/>
</svg>
