<svg width="20" height="21" viewBox="0 0 20 21" fill="none" xmlns="http://www.w3.org/2000/svg">
<path fill-rule="evenodd" clip-rule="evenodd" d="M10.6041 2.36842V4.73653C10.5341 4.74667 10.1558 4.79342 9.91897 4.81779C8.25143 4.98955 6.54932 5.60636 5.08388 6.56989C2.85986 8.03218 1.17404 10.2927 0.45228 12.7803C0.299636 13.3064 0.180073 13.8686 0.085566 14.5043C0.0335753 14.8543 0.0189333 15.3949 0.00523095 17.475C-0.00396921 18.8736 -0.000719795 20.0071 0.0125128 19.9939C0.0257453 19.9807 0.384238 19.1706 0.809208 18.1937C1.64513 16.2722 1.88304 15.8225 2.49945 14.9987C4.22779 12.689 6.82071 11.1441 9.67276 10.7248C9.9589 10.6827 10.2854 10.6482 10.3982 10.6481L10.6035 10.648L10.6136 13.0014L10.6237 15.3549L15.3118 11.5282C17.8903 9.42346 20 7.68859 20 7.67286C20 7.65239 11.46 0.678966 10.6041 0.000305176V2.36842ZM11.7786 4.20866V5.91384L11.299 5.91396C8.54658 5.91474 6.04112 6.94533 4.12369 8.8655C2.80619 10.1849 1.92536 11.7354 1.48548 13.5094C1.38279 13.9236 1.2366 14.7033 1.268 14.6694C1.27368 14.6633 1.38858 14.5086 1.52341 14.3257C3.76896 11.2791 7.41003 9.43532 11.1812 9.43512L11.7778 9.43508L11.788 11.154L11.7982 12.873L14.9766 10.2835C16.7247 8.85928 18.155 7.68522 18.1551 7.67446C18.1553 7.65177 11.8655 2.53603 11.8133 2.51651C11.7934 2.50903 11.7786 3.23198 11.7786 4.20866Z" fill="black"/>
</svg>
