<svg width="375" height="81" viewBox="0 0 375 81" fill="none" xmlns="http://www.w3.org/2000/svg">
<path d="M188.012 37C186.887 37 185.975 36.0878 185.975 34.9625V28.0155H179.04C177.913 28.0155 177 27.1022 177 25.9757V25.9757C177 24.8492 177.913 23.936 179.04 23.936H185.975V17.0375C185.975 15.9122 186.887 15 188.012 15V15C189.137 15 190.05 15.9122 190.05 17.0375V23.936H196.96C198.087 23.936 199 24.8492 199 25.9757V25.9757C199 27.1022 198.087 28.0155 196.96 28.0155H190.05V34.9625C190.05 36.0878 189.137 37 188.012 37V37Z" fill="#2A1010"/>
<circle cx="188" cy="26" r="25.5753" fill="#FFE868" stroke="url(#paint0_linear_2063_6567)" stroke-width="0.849333"/>
<path d="M188.012 37C186.887 37 185.975 36.0878 185.975 34.9625V28.0155H179.04C177.913 28.0155 177 27.1022 177 25.9757V25.9757C177 24.8492 177.913 23.936 179.04 23.936H185.975V17.0375C185.975 15.9122 186.887 15 188.012 15V15C189.137 15 190.05 15.9122 190.05 17.0375V23.936H196.96C198.087 23.936 199 24.8492 199 25.9757V25.9757C199 27.1022 198.087 28.0155 196.96 28.0155H190.05V34.9625C190.05 36.0878 189.137 37 188.012 37V37Z" fill="#2A1010"/>
<path d="M188 56.2384C204.845 56.2384 218.5 42.5831 218.5 25.7384C218.5 20.6279 217.243 15.8096 215.02 11.5773C214.408 10.4109 215.256 8.9888 216.461 9.01764C220.441 9.11285 224.616 9.22616 229.061 9.35763C283.881 10.9789 330.285 14.7171 369.026 20.5218C372.183 20.9947 374.5 23.7155 374.5 26.914V80.5H0.500004L0.5 26.9139C0.5 23.7155 2.81697 20.9947 5.97351 20.5217C44.958 14.6806 91.7279 10.928 146.938 9.33197C151.388 9.20335 155.566 9.09267 159.549 8.99995C160.755 8.97188 161.602 10.3945 160.989 11.5605C158.761 15.7968 157.5 20.6211 157.5 25.7384C157.5 42.5831 171.155 56.2384 188 56.2384Z" fill="white" stroke="#DDDDDD"/>
<defs>
<linearGradient id="paint0_linear_2063_6567" x1="188" y1="0" x2="188" y2="52" gradientUnits="userSpaceOnUse">
<stop stop-color="#FFDC5F"/>
<stop offset="1" stop-color="#FFE70F"/>
</linearGradient>
</defs>
</svg>
