<svg width="18" height="24" viewBox="0 0 18 24" fill="none" xmlns="http://www.w3.org/2000/svg">
<mask id="path-1-inside-1_2063_6574" fill="white">
<path fill-rule="evenodd" clip-rule="evenodd" d="M13.2819 12.5807C12.0838 13.4336 10.6027 13.9378 8.99961 13.9378C7.39657 13.9378 5.91557 13.4337 4.71756 12.5808L0.398166 19.7994C-0.709017 21.6498 0.624 24.0008 2.78029 24.0008H15.2192C17.3755 24.0008 18.7085 21.6498 17.6013 19.7994L13.2819 12.5807Z"/>
</mask>
<path d="M13.2819 12.5807L15.0884 11.4997L13.9179 9.54357L12.0609 10.8657L13.2819 12.5807ZM4.71756 12.5808L5.93849 10.8658L4.08147 9.5438L2.91102 11.4999L4.71756 12.5808ZM0.398166 19.7994L-1.40837 18.7185L-1.40837 18.7185L0.398166 19.7994ZM17.6013 19.7994L19.4079 18.7185L19.4079 18.7185L17.6013 19.7994ZM12.0609 10.8657C11.2121 11.47 10.1562 11.8325 8.99961 11.8325V16.043C11.0493 16.043 12.9556 15.3973 14.5029 14.2957L12.0609 10.8657ZM8.99961 11.8325C7.84308 11.8325 6.78726 11.47 5.93849 10.8658L3.49663 14.2959C5.04388 15.3974 6.95007 16.043 8.99961 16.043V11.8325ZM2.2047 20.8804L6.52409 13.6618L2.91102 11.4999L-1.40837 18.7185L2.2047 20.8804ZM2.78029 21.8956C2.25927 21.8956 1.93718 21.3275 2.2047 20.8804L-1.40837 18.7185C-3.35521 21.972 -1.01127 26.1061 2.78029 26.1061V21.8956ZM15.2192 21.8956H2.78029V26.1061H15.2192V21.8956ZM15.7948 20.8804C16.0623 21.3275 15.7402 21.8956 15.2192 21.8956V26.1061C19.0108 26.1061 21.3547 21.972 19.4079 18.7185L15.7948 20.8804ZM11.4753 13.6617L15.7948 20.8804L19.4079 18.7185L15.0884 11.4997L11.4753 13.6617Z" fill="#665353" mask="url(#path-1-inside-1_2063_6574)"/>
<path d="M14.3641 6.19215C14.3641 8.99546 11.9979 11.3317 8.99913 11.3317C6.00034 11.3317 3.63417 8.99546 3.63417 6.19215C3.63417 3.38883 6.00034 1.05262 8.99913 1.05262C11.9979 1.05262 14.3641 3.38883 14.3641 6.19215Z" stroke="#665353" stroke-width="2.10525"/>
</svg>
