<svg width="18" height="25" viewBox="0 0 18 25" fill="none" xmlns="http://www.w3.org/2000/svg">
<mask id="path-1-inside-1_1639_229" fill="white">
<path fill-rule="evenodd" clip-rule="evenodd" d="M13.1073 12.6484C11.9267 13.506 10.4672 14.0128 8.88743 14.0128C7.30775 14.0128 5.84831 13.506 4.66774 12.6486L0.385655 19.9497C-0.69972 21.8003 0.634802 24.1301 2.78021 24.1301H14.9949C17.1403 24.1301 18.4749 21.8003 17.3895 19.9497L13.1073 12.6484Z"/>
</mask>
<path d="M13.1073 12.6484L14.9233 11.5834L13.7487 9.5806L11.8701 10.9451L13.1073 12.6484ZM4.66774 12.6486L5.90491 10.9452L4.02636 9.58081L2.85178 11.5835L4.66774 12.6486ZM0.385656 19.9497L-1.43031 18.8846L-1.43031 18.8846L0.385656 19.9497ZM17.3895 19.9497L15.5735 21.0148H15.5735L17.3895 19.9497ZM11.8701 10.9451C11.0391 11.5487 10.0105 11.9076 8.88743 11.9076V16.1181C10.924 16.1181 12.8144 15.4632 14.3445 14.3518L11.8701 10.9451ZM8.88743 11.9076C7.76448 11.9076 6.73589 11.5487 5.90491 10.9452L3.43058 14.352C4.96072 15.4633 6.85102 16.1181 8.88743 16.1181V11.9076ZM2.20162 21.0148L6.48371 13.7136L2.85178 11.5835L-1.43031 18.8846L2.20162 21.0148ZM2.78021 22.0249C2.26182 22.0249 1.93937 21.4619 2.20162 21.0148L-1.43031 18.8846C-3.33881 22.1387 -0.992214 26.2354 2.78021 26.2354V22.0249ZM14.9949 22.0249H2.78021V26.2354H14.9949V22.0249ZM15.5735 21.0148C15.8358 21.4619 15.5133 22.0249 14.9949 22.0249V26.2354C18.7674 26.2354 21.1139 22.1387 19.2055 18.8846L15.5735 21.0148ZM11.2914 13.7135L15.5735 21.0148L19.2055 18.8846L14.9233 11.5834L11.2914 13.7135Z" fill="#FFC81C" mask="url(#path-1-inside-1_1639_229)"/>
<path d="M14.1581 6.2255C14.1581 9.06686 11.8137 11.3984 8.88663 11.3984C5.9596 11.3984 3.61512 9.06686 3.61512 6.2255C3.61512 3.38414 5.9596 1.05262 8.88663 1.05262C11.8137 1.05262 14.1581 3.38414 14.1581 6.2255Z" stroke="#FFC81C" stroke-width="2.10525"/>
</svg>
