<svg width="24" height="24" viewBox="0 0 24 24" fill="none" xmlns="http://www.w3.org/2000/svg">
<mask id="mask0_519_1013" style="mask-type:alpha" maskUnits="userSpaceOnUse" x="0" y="0" width="24" height="24">
<rect width="24" height="24" fill="#D9D9D9"/>
</mask>
<g mask="url(#mask0_519_1013)">
<path d="M1 23L2.95 16.3C2.63333 15.6167 2.39583 14.9167 2.2375 14.2C2.07917 13.4833 2 12.75 2 12C2 10.6167 2.2625 9.31667 2.7875 8.1C3.3125 6.88333 4.025 5.825 4.925 4.925C5.825 4.025 6.88333 3.3125 8.1 2.7875C9.31667 2.2625 10.6167 2 12 2C13.3833 2 14.6833 2.2625 15.9 2.7875C17.1167 3.3125 18.175 4.025 19.075 4.925C19.975 5.825 20.6875 6.88333 21.2125 8.1C21.7375 9.31667 22 10.6167 22 12C22 13.3833 21.7375 14.6833 21.2125 15.9C20.6875 17.1167 19.975 18.175 19.075 19.075C18.175 19.975 17.1167 20.6875 15.9 21.2125C14.6833 21.7375 13.3833 22 12 22C11.25 22 10.5167 21.9208 9.8 21.7625C9.08333 21.6042 8.38333 21.3667 7.7 21.05L1 23ZM3.95 20.05L7.15 19.1C7.38333 19.0333 7.62083 19.0083 7.8625 19.025C8.10417 19.0417 8.33333 19.1 8.55 19.2C9.08333 19.4667 9.64167 19.6667 10.225 19.8C10.8083 19.9333 11.4 20 12 20C14.2333 20 16.125 19.225 17.675 17.675C19.225 16.125 20 14.2333 20 12C20 9.76667 19.225 7.875 17.675 6.325C16.125 4.775 14.2333 4 12 4C9.76667 4 7.875 4.775 6.325 6.325C4.775 7.875 4 9.76667 4 12C4 12.6 4.06667 13.1917 4.2 13.775C4.33333 14.3583 4.53333 14.9167 4.8 15.45C4.91667 15.6667 4.97917 15.8958 4.9875 16.1375C4.99583 16.3792 4.96667 16.6167 4.9 16.85L3.95 20.05ZM11 16H13V13H16V11H13V8H11V11H8V13H11V16Z" fill="#FFC81C"/>
</g>
</svg>
