<svg width="17" height="13" viewBox="0 0 17 13" fill="none" xmlns="http://www.w3.org/2000/svg">
<path d="M0.75 2.42857C0.75 2.02846 0.88999 1.66105 1.12366 1.37264L6.39699 6.02557C7.59856 7.08578 9.40144 7.08578 10.603 6.02557L15.8763 1.37264C16.11 1.66105 16.25 2.02846 16.25 2.42857V9.71428C16.25 10.6413 15.4985 11.3929 14.5714 11.3929H2.42857C1.50152 11.3929 0.75 10.6413 0.75 9.71429V2.42857ZM15.8064 1.29174C15.8227 1.30938 15.8385 1.32736 15.854 1.34568L15.8064 1.29174ZM2.68517 0.75H14.3148L9.61058 4.90081C8.97604 5.4607 8.02396 5.4607 7.38942 4.90081L2.68517 0.75ZM1.19355 1.29176L1.14598 1.34566C1.16146 1.32736 1.17732 1.30938 1.19355 1.29176Z" stroke="black" stroke-width="1.5"/>
</svg>
