<svg width="24" height="25" viewBox="0 0 24 25" fill="none" xmlns="http://www.w3.org/2000/svg">
<path d="M23 9.72663V22.4378C23 22.9901 22.5523 23.4378 22 23.4378H16.5C15.9477 23.4378 15.5 22.9901 15.5 22.4378V17.7711C15.5 16.6665 14.6046 15.7711 13.5 15.7711H10.5C9.39543 15.7711 8.5 16.6665 8.5 17.7711V22.4378C8.5 22.9901 8.05228 23.4378 7.5 23.4378H2C1.44772 23.4378 1 22.9901 1 22.4378V9.72663C1 9.42301 1.13794 9.13584 1.37494 8.94605L10.7499 1.43885C11.4806 0.853716 12.5194 0.853716 13.2501 1.43885L22.6251 8.94605C22.8621 9.13584 23 9.42301 23 9.72663Z" stroke="#665353" stroke-width="2"/>
</svg>
