<svg width="19" height="26" viewBox="0 0 19 26" fill="none" xmlns="http://www.w3.org/2000/svg">
<path d="M1 9.40325C1 4.77189 4.7959 1 9.5 1C14.2041 1 18 4.77189 18 9.40325C18 10.1775 17.7268 11.2218 17.2032 12.4716C16.6874 13.7027 15.964 15.0514 15.1448 16.4087C13.5069 19.1226 11.5323 21.7953 10.2045 23.5108C9.84023 23.9815 9.15977 23.9815 8.79547 23.5108C7.46766 21.7953 5.49306 19.1226 3.85518 16.4087C3.03597 15.0514 2.31261 13.7027 1.79681 12.4716C1.27318 11.2218 1 10.1775 1 9.40325Z" stroke="#665353" stroke-width="2"/>
<path d="M12.7442 9.59616C12.7442 11.1979 11.3483 12.5962 9.49956 12.5962C7.65081 12.5962 6.25488 11.1979 6.25488 9.59616C6.25488 7.99441 7.65081 6.59616 9.49956 6.59616C11.3483 6.59616 12.7442 7.99441 12.7442 9.59616Z" stroke="#665353" stroke-width="2"/>
</svg>
