<svg width="24" height="24" viewBox="0 0 24 24" fill="none" xmlns="http://www.w3.org/2000/svg">
<mask id="mask0_537_178" style="mask-type:alpha" maskUnits="userSpaceOnUse" x="0" y="0" width="25" height="24">
<rect x="0.00366211" width="24" height="24" fill="#D9D9D9"/>
</mask>
<g mask="url(#mask0_537_178)">
<path d="M15.0037 21L9.00366 18.9L4.35366 20.7C4.02033 20.8333 3.712 20.7958 3.42866 20.5875C3.14533 20.3792 3.00366 20.1 3.00366 19.75V5.75C3.00366 5.53333 3.06616 5.34167 3.19116 5.175C3.31616 5.00833 3.487 4.88333 3.70366 4.8L9.00366 3L15.0037 5.1L19.6537 3.3C19.987 3.16667 20.2953 3.20417 20.5787 3.4125C20.862 3.62083 21.0037 3.9 21.0037 4.25V18.25C21.0037 18.4667 20.9412 18.6583 20.8162 18.825C20.6912 18.9917 20.5203 19.1167 20.3037 19.2L15.0037 21ZM14.0037 18.55V6.85L10.0037 5.45V17.15L14.0037 18.55ZM16.0037 18.55L19.0037 17.55V5.7L16.0037 6.85V18.55ZM5.00366 18.3L8.00366 17.15V5.45L5.00366 6.45V18.3Z" fill="#6B6B6B"/>
</g>
</svg>
