<svg width="19" height="26" viewBox="0 0 19 26" fill="none" xmlns="http://www.w3.org/2000/svg">
<path d="M9.20647 23.8634C9.01828 23.6237 8.80127 23.3446 8.56176 23.0319C7.707 21.9163 6.56928 20.3788 5.43346 18.6871C4.29527 16.9919 3.17181 15.1609 2.33659 13.4555C1.48414 11.7149 1 10.2383 1 9.20965C1 4.67526 4.67449 1 9.20647 1C13.7384 1 17.4129 4.67526 17.4129 9.20965C17.4129 10.2383 16.9288 11.7149 16.0763 13.4555C15.2411 15.1609 14.1177 16.9919 12.9795 18.6871C11.8437 20.3788 10.7059 21.9163 9.85118 23.0319C9.61166 23.3446 9.39465 23.6237 9.20647 23.8634Z" stroke="#FFC81C" stroke-width="2"/>
<path d="M12.3189 9.39811C12.3189 10.9641 10.9714 12.3158 9.20533 12.3158C7.43923 12.3158 6.0918 10.9641 6.0918 9.39811C6.0918 7.83216 7.43923 6.48047 9.20533 6.48047C10.9714 6.48047 12.3189 7.83216 12.3189 9.39811Z" stroke="#FFC81C" stroke-width="2"/>
</svg>
