<svg width="25" height="25" viewBox="0 0 25 25" fill="none" xmlns="http://www.w3.org/2000/svg">
<mask id="mask0_317_372" style="mask-type:alpha" maskUnits="userSpaceOnUse" x="0" y="0" width="25" height="25">
<rect x="0.589722" y="0.0476074" width="24" height="24" fill="#D9D9D9"/>
</mask>
<g mask="url(#mask0_317_372)">
<path d="M12.5897 22.0476C10.8231 22.0476 9.38139 21.7684 8.26472 21.2101C7.14806 20.6518 6.58972 19.9309 6.58972 19.0476C6.58972 18.4643 6.83139 17.9559 7.31472 17.5226C7.79806 17.0893 8.46472 16.7476 9.31472 16.4976L9.88972 18.3976C9.60639 18.4809 9.34806 18.5851 9.11472 18.7101C8.88139 18.8351 8.72305 18.9476 8.63972 19.0476C8.85639 19.3143 9.35639 19.5476 10.1397 19.7476C10.9231 19.9476 11.7397 20.0476 12.5897 20.0476C13.4397 20.0476 14.2606 19.9476 15.0522 19.7476C15.8439 19.5476 16.3481 19.3143 16.5647 19.0476C16.4814 18.9476 16.3231 18.8351 16.0897 18.7101C15.8564 18.5851 15.5981 18.4809 15.3147 18.3976L15.8897 16.4976C16.7397 16.7476 17.4022 17.0893 17.8772 17.5226C18.3522 17.9559 18.5897 18.4643 18.5897 19.0476C18.5897 19.9309 18.0314 20.6518 16.9147 21.2101C15.7981 21.7684 14.3564 22.0476 12.5897 22.0476ZM12.5897 15.3726C12.8897 14.8226 13.2064 14.3184 13.5397 13.8601C13.8731 13.4018 14.1981 12.9643 14.5147 12.5476C15.1314 11.7476 15.6231 11.0268 15.9897 10.3851C16.3564 9.74344 16.5397 8.94761 16.5397 7.99761C16.5397 6.89761 16.1564 5.96427 15.3897 5.19761C14.6231 4.43094 13.6897 4.04761 12.5897 4.04761C11.4897 4.04761 10.5564 4.43094 9.78972 5.19761C9.02306 5.96427 8.63972 6.89761 8.63972 7.99761C8.63972 8.94761 8.82306 9.74344 9.18972 10.3851C9.55639 11.0268 10.0481 11.7476 10.6647 12.5476C10.9814 12.9643 11.3064 13.4018 11.6397 13.8601C11.9731 14.3184 12.2897 14.8226 12.5897 15.3726ZM12.5897 19.0476C12.4064 19.0476 12.2397 18.9934 12.0897 18.8851C11.9397 18.7768 11.8314 18.6309 11.7647 18.4476C11.3814 17.2643 10.8981 16.2726 10.3147 15.4726C9.73139 14.6726 9.16472 13.9059 8.61472 13.1726C8.08139 12.4393 7.61889 11.6809 7.22722 10.8976C6.83555 10.1143 6.63972 9.14761 6.63972 7.99761C6.63972 6.33094 7.21472 4.92261 8.36472 3.77261C9.51472 2.62261 10.9231 2.04761 12.5897 2.04761C14.2564 2.04761 15.6647 2.62261 16.8147 3.77261C17.9647 4.92261 18.5397 6.33094 18.5397 7.99761C18.5397 9.14761 18.3481 10.1143 17.9647 10.8976C17.5814 11.6809 17.1147 12.4393 16.5647 13.1726C16.0314 13.9059 15.4689 14.6726 14.8772 15.4726C14.2856 16.2726 13.7981 17.2643 13.4147 18.4476C13.3481 18.6309 13.2397 18.7768 13.0897 18.8851C12.9397 18.9934 12.7731 19.0476 12.5897 19.0476ZM12.5897 10.1226C13.1731 10.1226 13.6731 9.91427 14.0897 9.49761C14.5064 9.08094 14.7147 8.58094 14.7147 7.99761C14.7147 7.41427 14.5064 6.91427 14.0897 6.49761C13.6731 6.08094 13.1731 5.87261 12.5897 5.87261C12.0064 5.87261 11.5064 6.08094 11.0897 6.49761C10.6731 6.91427 10.4647 7.41427 10.4647 7.99761C10.4647 8.58094 10.6731 9.08094 11.0897 9.49761C11.5064 9.91427 12.0064 10.1226 12.5897 10.1226Z" fill="white"/>
</g>
</svg>
