<svg width="14" height="16" viewBox="0 0 14 16" fill="none" xmlns="http://www.w3.org/2000/svg">
<rect x="0.75" y="7.50781" width="12.0128" height="7.24359" rx="0.839744" stroke="black" stroke-width="1.5"/>
<path fill-rule="evenodd" clip-rule="evenodd" d="M3.61133 6.75641V4.64503C3.61133 2.90808 5.01941 1.5 6.75636 1.5C8.49331 1.5 9.90139 2.90808 9.90139 4.64503V6.75641H11.4014V4.64503C11.4014 2.07965 9.32174 0 6.75636 0C4.19098 0 2.11133 2.07965 2.11133 4.64503V6.75641H3.61133Z" fill="black"/>
<circle cx="6.62428" cy="10.2005" r="1.05983" fill="black"/>
<path d="M5.67484 12.0718L6.22438 10.8354C6.25273 10.7716 6.31599 10.7305 6.3858 10.7305H6.86277C6.93257 10.7305 6.99583 10.7716 7.02418 10.8354L7.57372 12.0718C7.62564 12.1886 7.54013 12.3202 7.41231 12.3202H5.83626C5.70843 12.3202 5.62293 12.1886 5.67484 12.0718Z" fill="black"/>
</svg>
