<svg width="15" height="20" viewBox="0 0 15 20" fill="none" xmlns="http://www.w3.org/2000/svg">
<mask id="path-1-inside-1_1633_208" fill="white">
<path fill-rule="evenodd" clip-rule="evenodd" d="M10.4213 9.9614C9.50597 10.6367 8.3745 11.0358 7.1498 11.0358C5.92482 11.0358 4.79311 10.6365 3.87771 9.96094L0.249083 16.2459C-0.458636 17.4717 0.426014 19.004 1.84145 19.004H12.4572C13.8727 19.004 14.7573 17.4717 14.0496 16.2459L10.4213 9.9614Z"/>
</mask>
<path d="M10.4213 9.9614L11.7203 9.2114L10.8812 7.75804L9.53075 8.75434L10.4213 9.9614ZM3.87771 9.96094L4.76839 8.75401L3.41789 7.75737L2.57867 9.21094L3.87771 9.96094ZM0.249083 16.2459L1.54812 16.9959L0.249083 16.2459ZM14.0496 16.2459L12.7506 16.9959V16.9959L14.0496 16.2459ZM9.53075 8.75434C8.86461 9.24579 8.04326 9.53577 7.1498 9.53577V12.5358C8.70573 12.5358 10.1473 12.0275 11.3118 11.1685L9.53075 8.75434ZM7.1498 9.53577C6.25614 9.53577 5.43461 9.24566 4.76839 8.75401L2.98703 11.1679C4.1516 12.0273 5.59351 12.5358 7.1498 12.5358V9.53577ZM1.54812 16.9959L5.17675 10.7109L2.57867 9.21094L-1.04995 15.4959L1.54812 16.9959ZM1.84145 17.504C1.58071 17.504 1.41775 17.2217 1.54812 16.9959L-1.04995 15.4959C-2.33503 17.7217 -0.728684 20.504 1.84145 20.504V17.504ZM12.4572 17.504H1.84145V20.504H12.4572V17.504ZM12.7506 16.9959C12.8809 17.2217 12.718 17.504 12.4572 17.504V20.504C15.0274 20.504 16.6337 17.7217 15.3487 15.4959L12.7506 16.9959ZM9.12222 10.7114L12.7506 16.9959L15.3487 15.4959L11.7203 9.2114L9.12222 10.7114Z" fill="black" mask="url(#path-1-inside-1_1633_208)"/>
<circle cx="7.14932" cy="4.90323" r="4.15323" stroke="black" stroke-width="1.5"/>
</svg>
