<svg width="24" height="24" viewBox="0 0 24 24" fill="none" xmlns="http://www.w3.org/2000/svg">
<mask id="mask0_530_157" style="mask-type:alpha" maskUnits="userSpaceOnUse" x="0" y="0" width="24" height="24">
<rect width="24" height="24" fill="#D9D9D9"/>
</mask>
<g mask="url(#mask0_530_157)">
<path d="M2 22C2.48333 20.7667 2.80417 19.4958 2.9625 18.1875C3.12083 16.8792 3.21667 15.5667 3.25 14.25C2.6 14 2.0625 13.5833 1.6375 13C1.2125 12.4167 1 11.75 1 11V9C2.91667 8.36667 4.87083 7.4 6.8625 6.1C8.85417 4.8 10.5667 3.43333 12 2C13.4333 3.43333 15.1458 4.8 17.1375 6.1C19.1292 7.4 21.0833 8.36667 23 9V11C23 11.75 22.7875 12.4167 22.3625 13C21.9375 13.5833 21.4 14 20.75 14.25C20.7833 15.5667 20.8792 16.8792 21.0375 18.1875C21.1958 19.4958 21.5167 20.7667 22 22H2ZM5.9 9H18.1C16.8 8.26667 15.6292 7.5125 14.5875 6.7375C13.5458 5.9625 12.6833 5.28333 12 4.7C11.3167 5.28333 10.4542 5.9625 9.4125 6.7375C8.37083 7.5125 7.2 8.26667 5.9 9ZM14.5 12.5C14.9167 12.5 15.2708 12.3542 15.5625 12.0625C15.8542 11.7708 16 11.4167 16 11H13C13 11.4167 13.1458 11.7708 13.4375 12.0625C13.7292 12.3542 14.0833 12.5 14.5 12.5ZM9.5 12.5C9.91667 12.5 10.2708 12.3542 10.5625 12.0625C10.8542 11.7708 11 11.4167 11 11H8C8 11.4167 8.14583 11.7708 8.4375 12.0625C8.72917 12.3542 9.08333 12.5 9.5 12.5ZM4.5 12.5C4.91667 12.5 5.27083 12.3542 5.5625 12.0625C5.85417 11.7708 6 11.4167 6 11H3C3 11.4167 3.14583 11.7708 3.4375 12.0625C3.72917 12.3542 4.08333 12.5 4.5 12.5ZM4.65 20H7.325C7.475 19 7.59167 18.0083 7.675 17.025C7.75833 16.0417 7.825 15.05 7.875 14.05C7.725 13.9667 7.575 13.8792 7.425 13.7875C7.275 13.6958 7.13333 13.5833 7 13.45C6.75 13.7 6.47917 13.9042 6.1875 14.0625C5.89583 14.2208 5.58333 14.3417 5.25 14.425C5.21667 15.375 5.15833 16.3125 5.075 17.2375C4.99167 18.1625 4.85 19.0833 4.65 20ZM9.35 20H14.65C14.5167 19.0833 14.4125 18.1667 14.3375 17.25C14.2625 16.3333 14.2 15.4083 14.15 14.475C13.7167 14.4417 13.3208 14.3375 12.9625 14.1625C12.6042 13.9875 12.2833 13.7583 12 13.475C11.7167 13.7583 11.3875 13.9875 11.0125 14.1625C10.6375 14.3375 10.25 14.4417 9.85 14.475C9.8 15.4083 9.7375 16.3333 9.6625 17.25C9.5875 18.1667 9.48333 19.0833 9.35 20ZM16.675 20H19.35C19.15 19.0833 19.0083 18.1625 18.925 17.2375C18.8417 16.3125 18.7833 15.375 18.75 14.425C18.4167 14.3417 18.1 14.2208 17.8 14.0625C17.5 13.9042 17.2333 13.7 17 13.45C16.8667 13.5833 16.725 13.6958 16.575 13.7875C16.425 13.8792 16.275 13.9667 16.125 14.05C16.175 15.05 16.2458 16.0417 16.3375 17.025C16.4292 18.0083 16.5417 19 16.675 20ZM19.5 12.5C19.9167 12.5 20.2708 12.3542 20.5625 12.0625C20.8542 11.7708 21 11.4167 21 11H18C18 11.4167 18.1458 11.7708 18.4375 12.0625C18.7292 12.3542 19.0833 12.5 19.5 12.5Z" fill="#FFC81C"/>
</g>
</svg>
