<svg width="28" height="24" viewBox="0 0 28 24" fill="none" xmlns="http://www.w3.org/2000/svg">
<mask id="path-1-inside-1_1639_196" fill="white">
<path fill-rule="evenodd" clip-rule="evenodd" d="M21.2604 4.29688H21.6507C25.1573 4.29688 28 7.13955 28 10.6462V16.6854C28 20.1921 25.1573 23.0347 21.6507 23.0347H6.34929C2.84267 23.0347 0 20.192 0 16.6854V10.6462C0 7.13955 2.84267 4.29688 6.34929 4.29688H6.7385C7.59179 1.79744 9.96036 0 12.7487 0H15.2502C18.0386 0 20.4071 1.79745 21.2604 4.29688Z"/>
</mask>
<path d="M21.2604 4.29688L19.3677 4.94304L19.8299 6.29688H21.2604V4.29688ZM6.7385 4.29688V6.29688H8.16905L8.63124 4.94305L6.7385 4.29688ZM21.2604 6.29688H21.6507V2.29688H21.2604V6.29688ZM21.6507 6.29688C24.0528 6.29688 26 8.24412 26 10.6462H30C30 6.03498 26.2619 2.29688 21.6507 2.29688V6.29688ZM26 10.6462V16.6854H30V10.6462H26ZM26 16.6854C26 19.0875 24.0528 21.0347 21.6507 21.0347V25.0347C26.2619 25.0347 30 21.2966 30 16.6854H26ZM21.6507 21.0347H6.34929V25.0347H21.6507V21.0347ZM6.34929 21.0347C3.94724 21.0347 2 19.0875 2 16.6854H-2C-2 21.2966 1.7381 25.0347 6.34929 25.0347V21.0347ZM2 16.6854V10.6462H-2V16.6854H2ZM2 10.6462C2 8.24412 3.94724 6.29688 6.34929 6.29688V2.29688C1.7381 2.29688 -2 6.03498 -2 10.6462H2ZM6.34929 6.29688H6.7385V2.29688H6.34929V6.29688ZM8.63124 4.94305C9.21657 3.22849 10.8418 2 12.7487 2V-2C9.07893 -2 5.967 0.366398 4.84576 3.6507L8.63124 4.94305ZM12.7487 2H15.2502V-2H12.7487V2ZM15.2502 2C17.1571 2 18.7823 3.22849 19.3677 4.94304L23.1531 3.65071C22.0319 0.366401 18.92 -2 15.2502 -2V2Z" fill="#6B6B6B" mask="url(#path-1-inside-1_1639_196)"/>
<path d="M19.3996 13.2733C19.3996 16.1477 17.0051 18.5192 13.9996 18.5192C10.9942 18.5192 8.59961 16.1477 8.59961 13.2733C8.59961 10.3989 10.9942 8.02734 13.9996 8.02734C17.0051 8.02734 19.3996 10.3989 19.3996 13.2733Z" stroke="#6B6B6B" stroke-width="2"/>
</svg>
