<svg width="24" height="25" viewBox="0 0 24 25" fill="none" xmlns="http://www.w3.org/2000/svg">
<mask id="mask0_537_175" style="mask-type:alpha" maskUnits="userSpaceOnUse" x="0" y="0" width="24" height="25">
<rect y="0.224854" width="24" height="24" fill="#D9D9D9"/>
</mask>
<g mask="url(#mask0_537_175)">
<path d="M19 19.2249V16.2249H5V19.2249H19ZM19 14.2249V10.2249H5V14.2249H19ZM19 8.22485V5.22485H5V8.22485H19ZM5 21.2249C4.45 21.2249 3.97917 21.029 3.5875 20.6374C3.19583 20.2457 3 19.7749 3 19.2249V5.22485C3 4.67485 3.19583 4.20402 3.5875 3.81235C3.97917 3.42069 4.45 3.22485 5 3.22485H19C19.55 3.22485 20.0208 3.42069 20.4125 3.81235C20.8042 4.20402 21 4.67485 21 5.22485V19.2249C21 19.7749 20.8042 20.2457 20.4125 20.6374C20.0208 21.029 19.55 21.2249 19 21.2249H5Z" fill="#6B6B6B"/>
</g>
</svg>
