<svg width="24" height="25" viewBox="0 0 24 25" fill="none" xmlns="http://www.w3.org/2000/svg">
<mask id="mask0_537_168" style="mask-type:alpha" maskUnits="userSpaceOnUse" x="-1" y="0" width="25" height="25">
<rect x="-0.00366211" y="0.224854" width="24" height="24" fill="#D9D9D9"/>
</mask>
<g mask="url(#mask0_537_168)">
<path d="M18.9963 19.2249V16.2249H4.99634V19.2249H18.9963ZM18.9963 14.2249V10.2249H4.99634V14.2249H18.9963ZM18.9963 8.22485V5.22485H4.99634V8.22485H18.9963ZM4.99634 21.2249C4.44634 21.2249 3.9755 21.029 3.58384 20.6374C3.19217 20.2457 2.99634 19.7749 2.99634 19.2249V5.22485C2.99634 4.67485 3.19217 4.20402 3.58384 3.81235C3.9755 3.42069 4.44634 3.22485 4.99634 3.22485H18.9963C19.5463 3.22485 20.0172 3.42069 20.4088 3.81235C20.8005 4.20402 20.9963 4.67485 20.9963 5.22485V19.2249C20.9963 19.7749 20.8005 20.2457 20.4088 20.6374C20.0172 21.029 19.5463 21.2249 18.9963 21.2249H4.99634Z" fill="#FFC81C"/>
</g>
</svg>
