<svg width="25" height="25" viewBox="0 0 25 25" fill="none" xmlns="http://www.w3.org/2000/svg">
<mask id="mask0_530_160" style="mask-type:alpha" maskUnits="userSpaceOnUse" x="0" y="0" width="25" height="25">
<rect x="0.0141602" y="0.267822" width="24" height="24" fill="#D9D9D9"/>
</mask>
<g mask="url(#mask0_530_160)">
<path d="M12.0142 22.2678C10.6308 22.2678 9.33083 22.0053 8.11416 21.4803C6.89749 20.9553 5.83916 20.2428 4.93916 19.3428C4.03916 18.4428 3.32666 17.3845 2.80166 16.1678C2.27666 14.9512 2.01416 13.6512 2.01416 12.2678C2.01416 10.8845 2.27666 9.58449 2.80166 8.36782C3.32666 7.15116 4.03916 6.09282 4.93916 5.19282C5.83916 4.29282 6.89749 3.58032 8.11416 3.05532C9.33083 2.53032 10.6308 2.26782 12.0142 2.26782C13.3975 2.26782 14.6975 2.53032 15.9142 3.05532C17.1308 3.58032 18.1892 4.29282 19.0892 5.19282C19.9892 6.09282 20.7017 7.15116 21.2267 8.36782C21.7517 9.58449 22.0142 10.8845 22.0142 12.2678C22.0142 12.7178 21.9892 13.1595 21.9392 13.5928C21.8892 14.0262 21.8058 14.4512 21.6892 14.8678C21.4558 14.6012 21.185 14.3762 20.8767 14.1928C20.5683 14.0095 20.2308 13.8845 19.8642 13.8178C19.9142 13.5678 19.9517 13.3137 19.9767 13.0553C20.0017 12.797 20.0142 12.5345 20.0142 12.2678C20.0142 10.0345 19.2392 8.14282 17.6892 6.59282C16.1392 5.04282 14.2475 4.26782 12.0142 4.26782C9.78083 4.26782 7.88916 5.04282 6.33916 6.59282C4.78916 8.14282 4.01416 10.0345 4.01416 12.2678C4.01416 14.5012 4.78916 16.3928 6.33916 17.9428C7.88916 19.4928 9.78083 20.2678 12.0142 20.2678C12.8642 20.2678 13.6767 20.1428 14.4517 19.8928C15.2267 19.6428 15.9392 19.2928 16.5892 18.8428C16.7892 19.1262 17.035 19.3762 17.3267 19.5928C17.6183 19.8095 17.9308 19.9762 18.2642 20.0928C17.4142 20.7762 16.46 21.3095 15.4017 21.6928C14.3433 22.0762 13.2142 22.2678 12.0142 22.2678ZM19.2642 18.2678C18.9142 18.2678 18.6183 18.147 18.3767 17.9053C18.135 17.6637 18.0142 17.3678 18.0142 17.0178C18.0142 16.6678 18.135 16.372 18.3767 16.1303C18.6183 15.8887 18.9142 15.7678 19.2642 15.7678C19.6142 15.7678 19.91 15.8887 20.1517 16.1303C20.3933 16.372 20.5142 16.6678 20.5142 17.0178C20.5142 17.3678 20.3933 17.6637 20.1517 17.9053C19.91 18.147 19.6142 18.2678 19.2642 18.2678ZM15.3142 16.9678L11.0142 12.6678V7.26782H13.0142V11.8678L16.7142 15.5678L15.3142 16.9678Z" fill="#FFC81C"/>
</g>
</svg>
